/* XPM */
static char *result[] = {
/* columns rows colors chars-per-pixel */
"64 64 177 2 ",
"   c #291616",
".  c #1E2E0D",
"X  c #1D2F06",
"o  c #1C3004",
"O  c #1F2C13",
"+  c #2B2902",
"@  c #242B0A",
"#  c #282B08",
"$  c #302702",
"%  c #352700",
"&  c #3E380A",
"*  c #202C12",
"=  c #251624",
"-  c #221628",
";  c #331F21",
":  c #55231B",
">  c #542B1E",
",  c #5B2819",
"<  c #48330B",
"1  c #63311B",
"2  c #643217",
"3  c #682F1A",
"4  c #641D25",
"5  c #4C2526",
"6  c #47272A",
"7  c #4A2629",
"8  c #43292C",
"9  c #532224",
"0  c #532B20",
"q  c #5B3424",
"w  c #553628",
"e  c #5F3E34",
"r  c #632D2D",
"t  c #623225",
"y  c #613329",
"u  c #6B3A2D",
"i  c #753D2C",
"p  c #783B2A",
"a  c #632E30",
"s  c #6E3B3D",
"d  c #723E30",
"f  c #713A3D",
"g  c #2D4F07",
"h  c #2E4D0B",
"j  c #304C0D",
"k  c #364A0A",
"l  c #2C5004",
"z  c #35590E",
"x  c #2F4C11",
"c  c #314B13",
"v  c #3B4516",
"b  c #365612",
"n  c #41440D",
"m  c #424313",
"M  c #466C1D",
"N  c #486A1F",
"B  c #6D422B",
"V  c #79472B",
"C  c #6E4836",
"Z  c #7B4435",
"A  c #734837",
"S  c #476A20",
"D  c #486A20",
"F  c #7D6B3A",
"G  c #565B4C",
"H  c #595656",
"J  c #6A6665",
"K  c #797474",
"L  c #777575",
"P  c #8C4F2A",
"I  c #874F2D",
"U  c #96552E",
"Y  c #884F34",
"T  c #8D4F3E",
"R  c #864F32",
"E  c #865334",
"W  c #88523F",
"Q  c #955535",
"!  c #935539",
"~  c #96593B",
"^  c #AA6B3F",
"/  c #8B4F42",
"(  c #884F49",
")  c #8A5141",
"_  c #8A5841",
"`  c #945E43",
"'  c #9D5A48",
"]  c #9D5947",
"[  c #AB5547",
"{  c #B65047",
"}  c #9C624A",
"|  c #916042",
" . c #9C6E56",
".. c #967156",
"X. c #887F47",
"o. c #AA6B40",
"O. c #A4674F",
"+. c #A6694E",
"@. c #BD7846",
"#. c #BC774C",
"$. c #BB784C",
"%. c #AA6755",
"&. c #A36B54",
"*. c #AB6C56",
"=. c #A96758",
"-. c #A76859",
";. c #AA6D59",
":. c #A76658",
">. c #B96F5A",
",. c #A87156",
"<. c #B67A51",
"1. c #B97851",
"2. c #B9795F",
"3. c #867069",
"4. c #A36962",
"5. c #B67A61",
"6. c #B97961",
"7. c #A77E76",
"8. c #C37563",
"9. c #C17A67",
"0. c #C37B6B",
"q. c #CC796E",
"w. c #69913C",
"e. c #798941",
"r. c #878047",
"t. c #B58048",
"y. c #BD926F",
"u. c #B48C7C",
"i. c #CF9649",
"p. c #D1954C",
"a. c #D78F56",
"s. c #D58F5B",
"d. c #D59154",
"f. c #D59059",
"g. c #CC8A6F",
"h. c #C3876E",
"j. c #C68D72",
"k. c #CB8A71",
"l. c #C28D7D",
"z. c #D28772",
"x. c #D08871",
"c. c #EFB76A",
"v. c #F0B860",
"b. c #F3CE64",
"n. c #F2CD6A",
"m. c #F8CA6C",
"M. c #EFCE71",
"N. c #F7C77E",
"B. c #FFC07F",
"V. c #F4C87D",
"C. c #BC9184",
"Z. c #ACA8A5",
"A. c #C28C80",
"S. c #DB9F87",
"D. c #DBA087",
"F. c #DBA088",
"G. c #C2BEBD",
"H. c #EEBFA1",
"J. c #EFBDAE",
"K. c #F1BFA3",
"L. c #FDB9A2",
"P. c #FFC180",
"I. c #FFE495",
"U. c #FCE49C",
"Y. c #EEC0A4",
"T. c #FDCEAE",
"R. c #F1C2A3",
"E. c #FAD0AE",
"W. c #F4D3AD",
"Q. c #FCCEB1",
"!. c #FFC5B2",
"~. c #F7D1B2",
"^. c #FAE4A2",
"/. c #FFECBE",
"(. c #FEEBC7",
"). c #F8F6F5",
"_. c None",
/* pixels */
"_._._._._._._._._._._._._._._._._._._._._._._._._._._._._._._._._._._._._._._._._._._._._._._._._._._._._._._._._._._._._._._._.",
"_._._._._._._._._._._._._._._._._._._._._._._._._._._._._._._._._._._._._._._._._._._._._._._._._._._._._._._._._._._._._._._._.",
"_._._._._._._._._._._._._._._._._._._._._._._._._._.$.@.d.d.d.d.d._._._._._._._._._._._._._._._._._._._._._._._._._._._._._._._.",
"_._._._._._._._._._._._._._._._._._._._._._._.~ Q U i.b.b.b.b.b.b.d.d.d.d.d.d.p.d.d.d._._._._._._._._._._._._._._._._._._._._._.",
"_._._._._._._._._._._._._._._._._._._._._._.U a.d.i.b.b.b.b.b.b.b.b.b.b.b.b.b.b.b.b.b.p._._._._._._._._._._._._._._._._._._._._.",
"_._._._._._._._._._._._._._._._._._._._._ ~ @.a.i.b.b.b.b.b.b.b.b.b.b.b.b.b.b.b.b.b.b.b.d._._._._._._._._._._._._._._._._._._._.",
"_._._._._._._._._._._._._._._._._._._._ $.@.a.i.b.b.b.b.b.b.b.b.b.b.b.b.b.b.n.b.b.b.b.b.b.d._._._._._._._._._._._._._._._._._._.",
"_._._._._._._._._._._._._._._._._._._ 1.a.a.i.n.b.b.b.b.b.b.b.b.b.b.b.b.b.b.d.b.b.b.b.b.b.d._._._._._._._._._._._._._._._._._._.",
"_._._._._._._._._._._._._._._._._._ 1.f.a.p.b.b.b.n.b.b.b.b.n.M.^.b.b.b.n.b.d.b.b.n.b.b.b.b.d._._._._._._._._._._._._._._._._._.",
"_._._._._._._._._._._._._._._._._ $.$.f.a.p.b.n.M.I.b.M.I.M.^.^.U.b.b.n.U.b.b.d.b.^.n.b.U.n.d._._._._._._._._._._._._._._._._._.",
"_._._._._._._._._._._._._._._.A $.$.$.$.a.p.n.n.U.I.M.I.b.M.U.I.n.b.n.U.U.b.m.d.b.U.U.b.m.U.b.a._._._._._._._._._._._._._._._._.",
"_._._._._._._._._._._._._._._.C 1.$.a.a.f.p.b.b.n.n.b.b.M.I.n.b.b.b.U.n.n.b.d.d.b.n.n.b.d.n.b.d._._._._._._._._._._._._._._._._.",
"_._._._._._._._._._._._._._.C ~ 1.#.f.@.f.p.b.b.b.b.b.b.b.n.b.m.p.n.b.b.b.b.d.Q b.b.b.p.a.b.b.d._._._._._._._._._._._._._._._._.",
"_._._._._._._.s s s _._._._.C ! $.$.#.a.f.d.i.b.b.b.b.b.b.b.m.d.d.b.b.b.b.d.d.! b.b.d.d.d.d.b.m.<._._._._._._._._._._._._._._._.",
"_._._._._._.9 f 9 9 _._._._.C ~ 1.#.$.d.a.d.i.n.b.b.b.b.b.b.m.p.b.b.d.d.d.~ Q n.b.d.d.d.Q #.d.b.$._._._._._._._._._._._._._._._.",
"_._._._._._.9 s _._._._._.w V ! Q $.$.$.f.a.d.i.b.b.b.b.b.m.d.d.d.d.d.Q ! n.m.d.d.d.d.! ! Q #.p.#._._._._._._._._._._._._._._._.",
"_._._._._._.9 s _._._._._.w V ~ ! ! $.$.f.d.@.d.p.b.m.d.d.d.f.Q ~ Q Q f.f.d.d.d.Q Q Q Q V ! Q $.$._._._._._._._._._._._._._._._.",
"_._._._._._.9 s s _._._._.w V V ! ! Q Q Q Q @.a.d.d.d.f.Q Q ~ $.$.$.d.1 Q Q Q Q $.$.f.1 V V Q Q _._._._._._._._._._._._._._._._.",
"_._._._._._._.9 f s s _._.w V V V g.g.g.k.g.P $.$.Q Q ~ 2.5.1 1 1 1 2 1 g.2.2.1 1 1 2 1 V V V Q _._._._._._._._._._._._._._._._.",
"_._._._._._._._.9 9 9 9 9 y Z V *.g.T.E.j.k.k.I ! 5.6.5.g.g.l.= = = = k.g.g.g.= = = 6.2.V V V _._._._._._._._._._._._._._._._._.",
"_._._._._._._._._.9 _.7 9 y V V ;.k.} } T.T.k.R *.2.k.g.k.l.  (.(.- - g.T.T.k.(.- - 6.6.V V _._._._._._._._._._._._._._._._._._.",
"_._._._._._._._._.9 _._._._.q V ;.k.5.' Q.T.k.2.2.k.g.k.k.k.C././.- C.T.E.E.T./.= 7.5.1 V _._._._._._._._._._._._._._._._._._._.",
"_._._._._._._._._._.6 _._._.q V ;.k.k.O.j.j.k.6.g.k.g.g.T.T.g.y./.4 Q.T.E.E.E.W.4 T.k.1 _._._._._._._._._._._._._._._._._._._._.",
"_._._._._._._._._._.9 _._._.q 1 ;.k.k.k.g.g.k.g.k.g.g.T.T.T.T.T.W.!.E.>.E.E.Q.>.!.T.T.;._._._._._._._._._._._._._._._._._._._._.",
"_._._._._._._._._._._.6 _._._.q 1 ;.k.k.g.g.g.g.z.9.T.E.E.E.E.E.E.E.E.{ [ [ [ L.R.E.T.K.u._._._._._._._._._._._._._._._._._._._.",
"_._._._._._._._._._._.7 _._._._.q 1 >.*.*.*.g.g.z.9.E.E.E.E.E.E.E.E <.B.B.B.B.V.D.R.H.H.h._._._._._._._._._._._._._._._._._._._.",
"_._._._._._._._._._._._.6 _._._._.q 1 1 3 3 *.g.z.8.E.E.E.E.E.E.E 1.$.b.b.b.b.b.N.F.R.F.;._._._._._._._._._._._._._._._._._._._.",
"_._._._._._._._._._._._.7 _._._._._.q 1 1 1 3 *.x.z.6.E.E.E.E.E.E $.$.i.i.i.i.p.b.N.F.0.;._._._._._._._._._._._._._._._._._._._.",
"_._._._._._._._._._._._._.7 _._._._._.# $ $ + + % x.z.2.E.E.T.Y 1.$.f.P P P P d.i.b.0.q.;._._._._._._._._._._._._._._._._._._._.",
"_._._._._._._._._._._._._.7 _._._._.* c x c x x j < & < | E.T.Y P P P T.T.T.k.P I @.q.] _._._._._._._._._._._._._._._._._._._._.",
"_._._._._._._._._._._._._._.6 _._.* c h x h h h h h h j r.| | T.Q.Q.T.E.,.,.*.k.k.&.' _._._._._._._._._._._._._._._._._._._._._.",
"_._._._._._._._._._._._._._.7 _._.. c h h h h h h h h h g r.r.| | R.E.E.E.Q.g.g.+.] n _._._._._._._._._._._._._._._._._._._._._.",
"_._._._._._._._._._._._._._.8 _._.o h h g h h h g h h g g w.w.| F R.Q.Q.T.Q.k.k.O.F l _._._._._._._._._._._._._._._._._._._._._.",
"_._._._._._._._._._._._._._._.; * h h h h h g h h h g z z g l w.w.F F F F F F F F w.w.g _._._._._._._._._._._._._._._._._._._._.",
"_._._._._._._._._._.G.G.G.G.K G o h h c c c c j g g z M M M M l h w.w.w.w.w.w.w.w.h M h _._._._._._._._._._._._._._._._._._._._.",
"_._._._._._._._._._.K K K K K . x x + $ $ $ + + h z M M M M M M M g g g g g g h g M M g _._._._._._._._._._._._._._._._._._._._.",
"_._._._._._._._._._._.H H H G o h o  .*.%.+.%.&.+ b M M M M M M M M M M M M M M M M M M h _._._._.K L L _._._._._._._._._._._._.",
"_._._._._._._._._.G.G.G.G.H . x x + &.g.g.g.g.g. .+ N N N M M M M M M M M M M M M M N S c _._._.K K Z.).K _._._._._._._._._._._.",
"_._._._._._._._._._.K K K H . x o  .g.g.j.j.E.T.g. .v m m v D D S S M M M M M M D S m m _._._._.3.Z.Z.Z.K _._._._._._._._._._._.",
"_._._._._._._._._.H H H H H . h o  .k.j.T.E.E.T.T.j.> > p B m m m m S S S S S m m m i K._._._._.u 3.Z.J J _._._._._._._._._._._.",
"_._._._._._._._._._._._._._.. x o  .g.Q.E.E.E.E.!.A.0 , T T p p i i m m m m m p p p ! J.T._._.Z u u J J _._._._._._._._._._._._.",
"_._._._._._._._._._._._._._.. c o  .g.E.E.E.Q.Q.4.9 9 T / %.T %.%.%.p p p p p %.%.%.%.T K.E.%.-.Z e _._._._._._._._._._._._._._.",
"_._._._._._._._._._._._._._.o h o  .g.E.E.E.E.Q.9 9 9 ( / ( -.%.%.%.%.%.%.o.o.o.o.%.-.( J.E.-.Z C _._._._._._._._._._._._._._._.",
"_._._._._._._._._._._._._.. c h o ..g.E.E.Q.~.Q.9 9 9 9 a a r =.=.=.=.%.+.v.c.c.c.=.a a r E.Z Z _._._._._._._._._._._._._._._._.",
"_._._._._._._._._._._._._.. h g o  .k.T.E.E.E.~.9 9 9 a 9 a f r a a y a v.v.a a a a f f a K.E.Z._._._._._._._._._._._._._._._._.",
"_._._._._._._._._._._._._.. h h o &.k.E.E.E.Q.~.0 9 9 9 a a f f f f f f v.v.r f f f f f a K.T.J Z._._._._._._._._._._._._._._._.",
"_._._._._._._._._._._._.. x h o o  .k.E.E.E.E.~.0 9 9 9 9 9 9 s s s s s v.v.a s f f f 9 9 K.E.J J Z._._._._._._._._._._._._._._.",
"_._._._._._._._._._._._.X x h o o  .z.E.E.E.~.Q.> i i i i i i 9 9 9 : 9 c.v.: : : 9 9 p K.K.~._.J Z._._._._._._._._._._._._._._.",
"_._._._._._._._._._._.X x h o o o ..k.Q.E.E.E.E.Q.T T ] %.%.:.i i i i i i c.c.c.c.i i T K.R._._._._._._._._._._._._._._._._._._.",
"_._._._._._._._._._.o h h o o o o o  .Q.E.E.E.E.Q.T T ;.' %.%.%.%.%.%.%.%.i i p i %.%.%./ Y._._._._._._._._._._._._._._._._._._.",
"_._._._._._._._._.o j j o o o o o X ..Q.Q.E.E.Q.~.) T ] %.%.%.%.%.%.%.%.%.%.=.%.%.=.%.%./ _._._._._._._._._._._._._._._._._._._.",
"_._._._._._._._.X h h o o o o o o X o ..&.&.j...+ d i ) / / / / W -.-.-.=.=./ / / / / / ) _._._._._._._._._._._._._._._._._._._.",
"_._._._._._._._.o x o o o o o o X o X X o X X o # 9 9 9 9 9 9 9 9 9 9 9 9 9 9 9 9 9 9 5 o _._._._._._._._._._._._._._._._._._._.",
"_._._._._._._._.o o o o o o o o o o o o X o o o @ 9 9 9 9 a f f f 9 9 9 a a f f f a 9 @ o _._._._._._._._._._._._._._._._._._._.",
"_._._._._._._._._._.o X o X o o o X X o o X o @ 0 y t i d =.%.%.9.) y 0 d %.=.=.6.%.y X _._._._._._._._._._._._._._._._._._._._.",
"_._._._._._._._._._._._._.. o o o X o o X o o @ 0 y i / / T / T 9.) y > i i T / =.T y o _._._._._._._._._._._._._._._._._._._._.",
"_._._._._._._._._._._._._._._._._.@ o o o X o @ > > 0 0 > > > > > > > > > > > > 0 > @ _._._._._._._._._._._._._._._._._._._._._.",
"_._._._._._._._._._._._._._._._._._._._._._._._._.0 d B T / =.%.9.0 > > u T T -.6./ B _._._._._._._._._._._._._._._._._._._._._.",
"_._._._._._._._._._._._._._._._._._._._._._._._.0 V i T T T T / T 0 > A i T / i p i i A _._._._._._._._._._._._._._._._._._._._.",
"_._._._._._._._._._._._._._._._._._._._._._._._.9 d i i ) %.%.%.9.%.> > i i / W :.%.9.i A _._._._._._._._._._._._._._._._._._._.",
"_._._._._._._._._._._._._._._._._._._._._._._._.> > > > > > > > > > 0 0 > > 0 0 0 0 0 0 0 _._._._._._._._._._._._._._._._._._._.",
"_._._._._._._._._._._._._._._._._._._._._._._._._._._._._._._._._._._._._._._._._._._._._._._._._._._._._._._._._._._._._._._._.",
"_._._._._._._._._._._._._._._._._._._._._._._._._._._._._._._._._._._._._._._._._._._._._._._._._._._._._._._._._._._._._._._._.",
"_._._._._._._._._._._._._._._._._._._._._._._._._._._._._._._._._._._._._._._._._._._._._._._._._._._._._._._._._._._._._._._._."
};
