/* XPM */
static char *result[] = {
/* columns rows colors chars-per-pixel */
"64 64 73 1 ",
"  c #767068",
". c #867F77",
"X c #938D87",
"o c #919090",
"O c #9D9D9D",
"+ c #9E9C9E",
"@ c #9F9F9F",
"# c #A19E99",
"$ c #A5A3A5",
"% c #A5A5A7",
"& c #ACA9A2",
"* c #ABA9AB",
"= c #ACACAB",
"- c #AEAEAE",
"; c #B1AFB1",
": c #B1B3B1",
"> c #B6B4B6",
", c #BAB6B3",
"< c gray72",
"1 c #BAB9BA",
"2 c #BBBABB",
"3 c #BBBBBB",
"4 c #BCBDBA",
"5 c #C3C2BE",
"6 c #C0C0C0",
"7 c #C1C1C1",
"8 c #C3C3C3",
"9 c #C4C1C4",
"0 c #C5C5C5",
"q c #C8C8C8",
"w c gray79",
"e c #CDCDCA",
"r c gray80",
"t c #CDCDCD",
"y c #CCCECC",
"u c #D0D0D0",
"i c #D1D2D1",
"p c #D3D2D3",
"a c #D2D4D2",
"s c #D6D4D2",
"d c #D5D3D5",
"f c #D2D4D4",
"g c #D5D4D5",
"h c #D8D7D8",
"j c #D9DAD9",
"k c #DADADA",
"l c #DCDBDA",
"z c #DEDDDE",
"x c #DFDEDE",
"c c #DFDFDF",
"v c #E0E1DF",
"b c #E2DEE2",
"n c gray88",
"m c #E2E3E3",
"M c #E4E4E4",
"N c #E7E4E7",
"B c #E7E5E7",
"V c #E7E7E7",
"C c gray91",
"Z c #EAE9E9",
"A c gray92",
"S c #EEEDEE",
"D c #EEEEEE",
"F c #EFEEEE",
"G c #F0EFEF",
"H c #F0F1F0",
"J c #F3F3F3",
"K c #F6F5F6",
"L c gray97",
"P c #F9F9F9",
"I c #FCFBFC",
"U c white",
"Y c None",
/* pixels */
"YYYYYYYYYYYYYYYYYYYYYYYYYYYYYYYYYYYYYYYYYYYYYYYYYYYYYYYYYYYYYYYY",
"YYYYYYYYYYYYYYYYYYYYYYYYYYYYYYYYYYYYYYYYYYYYYYYYYYYYYYYYYYYYYYYY",
"YYYYYYYYYYYYYYYYYYYYYYYYYYYYYYYYYYYYYYYYYYYYYYYYYYYYYYYYYYYYYYYY",
"YYYYYYYYYYYYYYYYYYYYYYYYYYYYYYYYYYYYYYYYYYYYYYYYYYYYYYYYYYYYYYYY",
"YYYYYYYYYYYYYYYYYYYYYYYYYYYYYYYYYYYYYYYYYYYYYYYYYYYYYYYYYYYYYYYY",
"YYYYYYYYYYYYYYYYYYYYYYYYYYYYYYYYYYYYYYYYYYYYYYYYYYYYYYYYYYYYYYYY",
"YYYYYYYYYYYYYYYYYYYYYYYYYYYYYYYYYYYYYYYYYYYYYYYYYYYYYYYYYYYYYYYY",
"YYYYYYYYYYYYYYYYYYYYYYYYYYYYYYYYYYYYYYYYYYYYYYYYYYYYYYYYYYYYYYYY",
"YYYYYYYYYYYYYYYYYYYYYYYYYYYYYYYYYYYYYYYYYYYYYYYYYYYYYYYYYYYYYYYY",
"YYYYYYYYYYYYYYYYYYYYYYYYYYYYYYYYYYYYYYYYYYYYYYYYYYYYYYYYYYYYYYYY",
"YYYYYYYYYYYYYYYYYYYYYYYYYYYYYYYYYYYYYYYYYYYYYYYYYYYYYYYYYYYYYYYY",
"YYYYYYYYYYYYYYYYYYYYYYYYYYYYYYYYYYYYYYYYYYYYYYYYYYYYYYYYYYYYYYYY",
"YYYYYYYYYYYYYYYYYYYYYYYYYYYYYYYYYYYYYYYYYYYYYY:YYMYYYYYYYYYYYYYY",
"YYYYYYYYYYYYYYYYYYYYYYYYYYYYl%YYY00YYYYYYYYYYYYYYY@YYYYYYYYYYYYY",
"YYYYYYYYYYYYYYYYYYYYYYYYYYYYoYYYYYYYYYYYYYYY2YYYY YyYYYYYYYYYYYY",
"YYYYYYYYYYYYYYYYYYYYYYYYYYY%gsbYOYYYYYYYYYYYYYYYYYeYYYYYYYYYYYYY",
"YYYYYYYYYYYYYYYYYYYYYYYYqqYYYYYBBYYtYYYY*YY2YYYYYYyYYYYYYYYYYYYY",
"YYYYYYYYYYYYYYYYYYYYYYYYYYYYgYYYYYYYYYYYYxYYYYYYYYyYYYYYYYYYYYYY",
"YYYYYYYYYYYYYYMYYYYYYYYqYY9YYYYYYYYYYY*BY$YYYYYYYYyYYYYYYYYYYYYY",
"YYYYYYYYYYYYYY0oYYYYYYH-Y2Y2YYYYYYYYYYYYYYYYYYY4YaeY-YYYYYYYYYYY",
"YYYYYYYYYYYYYYYYYYYUU$A-SY=YYYYYYYYYYYYYYYYYYYY<zjYY;YYYYYYYYYYY",
"YYYYYYYYYY*YYJYYYY+VSYxSYYYYYYYYYYYVLYYY4YYYYY:YYYYD-YYYYYYYYYYY",
"YYYYYYYYYY3YCYYYYY<:7IdHYYYYYYYYYYY%YYYYYY=YYzYY9Y-YYYYYYYYYYYYY",
"YYYYYYYYYU%YCYYYY:YSI7dYYY*%$YYYY8Yz-NYYYxYYUYYkYYYYYYYYYYYYYYYY",
"YYYYYYYYY3M$bYYOgYYNkYYYYYYwYYYYYYYYYYYVY=YY$YYY29YYYYYYYYYYYYYY",
"YYYYYYYYYYY@YYflYY%YYYYYYYoYYYYYYYY;N-Y=YY=YYYYw9Y5YYYYYYYYYYYYY",
"YYYYYYYYYYYwwYYYYYYYY$YYY*uCYYzYYYf$k0f;Ykk%YYYwYYrYYYYYYYYYYYYY",
"YYYYYYYYYYYYYYYYYYYYYYY-Y*SSszOYderjkjf;1>zYYYwYYYYYYYYYYYYYYYYY",
"YYYYYYYYYYYYYYYYYYYYYYYYk<YYtdN-YY2Zkkt617=YY3YYYYYYYYYYYYYYYYYY",
"YYYYYYYYYYYYYYYYYYYYYYYzYz<<xhNKMIIvnkw691+YYYYYYYYYYYYYYYYYYYYY",
"YYYYYYYYYYYYYYYYYYYYYY--YYJymGSSHAGmjkf7477YYYgiYY=YYYYYYYYYYYYY",
"YYYYYYYYYYYYYYYYYYY+**w-*-CJGmmSHKBZxjww71+YYYxgYoYYYYYYYYYYYYYY",
"YYYYYYYYYYYYYYYYYYY+-*YqYqCJGGSHIKBFmxf77==YYYgYY9YYYYYYYYYYYYYY",
"YYYYYYYYYYYYYYYYYYYqqqY<uyxcPLIKLKKBJZkk4w-YYYYYrYYYYYYYYYYYYYYY",
"YYYYYYYYYYYYYYYYYY*00qq4ghJUJPPKUIJHABBxa-3YYKYY0YYYYYYYYYYYYYYY",
"YYYYYYYYYYYYYqYYYY7yayukkAcBKZKLLKPAJABp4y=Y7gOoYYYYYYYYYYYYYYYY",
"YYYYYYYYYYYYYYVYYYMxnnlkJILJJLKKPKPKAZBm=Y=8+YogYYYYYYYYYYYYYYYY",
"YYYYYYYYYYYYYYB<YynxmcxUPKGPPPKLLLPJGcZZ3Y3w=YYYYYYYYYYYYYYYYYYY",
"YYYYYYYYYYYYY-YY;yBHxAFBJHPPUUPLPPPLBSkhdd6YYYYYYYYYYYYYYYYYYYYY",
"YYYYYYYYYYYYYYYYqnUBAIHHHHPLIPILUUGSjiyww-Y87YYYYYYYYYYYYYYYYYYY",
"YYYYYYYYYYYYYYYYBnUSKHJZHJKULKPGJUIBay677-Y7YYYYYYYYYYYYYYYYYYYY",
"YYYYYYYYYYYYYYYYuNKHAKUJHKPPKKJIJIJBuw44494YYYYYYYYYYYYYYYYYYYYY",
"YYYYYYYYYYYYYYY1tNUAUPHJHALLGFJJHHSFku7999+YYYYYYYYYYYYYYYYYYYYY",
"YYYYYYYYYYYYYYYYueUPZxJAPPHHGGHHHHKAxjdt77%YYYYYYYYYYYYYYYYYYYYY",
"YYYYYYYYYYYYYYYY1uUcBZxLLKPLJSHHKHKAckht7rYYYYYYYYYYYYYYYYYYYYYY",
"YYYYYYYYYYYYYYYY<>HHBxUKPLKLHLGGJHJZlkt74YYYYYYYYYYYYYYYYYYYYYYY",
"YYYYYYYYYYYYYYYYYYHHxZJKJIKGIHGFGABZkaw74YYYYYYYYYYYYYYYYYYYYYYY",
"YYYYYYYYYYYYYYYYYY2BJAxmBBIIHIKJLAZ555#@YYYYYYYYYYYYYYYYYYYYYYYY",
"YYYYYYYYYYYYYYYYYYYBHAmlexKIKAILHJx,,,YYYYYYYYYYYYYYYYYYYYYYYYYY",
"YYYYYYYYYYYYYYYYYY.XZJme5eZZUUHPUZZ,YYYYYYYYYYYYYYYYYYYYYYYYYYYY",
"YYYYYYYYYYYYYYYYYYYYYY5eee5exxlss,&YYYYYYYYYYYYYYYYYYYYYYYYYYYYY",
"YYYYYYYYYYYYYYYYYYYYYYY&e&..,5,XXYYYYYYYYYYYYYYYYYYYYYYYYYYYYYYY",
"YYYYYYYYYYYYYYYYYYYYYY#YYYYYYYYYYYYYYYYYYYYYYYYYYYYYYYYYYYYYYYYY",
"YYYYYYYYYYYYYYYYYYYYYYYYYYYYYYYYYYYYYYYYYYYYYYYYYYYYYYYYYYYYYYYY",
"YYYYYYYYYYYYYYYYYYYYYYYYYYYYYYYYYYYYYYYYYYYYYYYYYYYYYYYYYYYYYYYY",
"YYYYYYYYYYYYYYYYYYYYYYYYYYYYYYYYYYYYYYYYYYYYYYYYYYYYYYYYYYYYYYYY",
"YYYYYYYYYYYYYYYYYYYYYYYYYYYYYYYYYYYYYYYYYYYYYYYYYYYYYYYYYYYYYYYY",
"YYYYYYYYYYYYYYYYYYYYYYYYYYYYYYYYYYYYYYYYYYYYYYYYYYYYYYYYYYYYYYYY",
"YYYYYYYYYYYYYYYYYYYYYYYYYYYYYYYYYYYYYYYYYYYYYYYYYYYYYYYYYYYYYYYY",
"YYYYYYYYYYYYYYYYYYYYYYYYYYYYYYYYYYYYYYYYYYYYYYYYYYYYYYYYYYYYYYYY",
"YYYYYYYYYYYYYYYYYYYYYYYYYYYYYYYYYYYYYYYYYYYYYYYYYYYYYYYYYYYYYYYY",
"YYYYYYYYYYYYYYYYYYYYYYYYYYYYYYYYYYYYYYYYYYYYYYYYYYYYYYYYYYYYYYYY",
"YYYYYYYYYYYYYYYYYYYYYYYYYYYYYYYYYYYYYYYYYYYYYYYYYYYYYYYYYYYYYYYY",
"YYYYYYYYYYYYYYYYYYYYYYYYYYYYYYYYYYYYYYYYYYYYYYYYYYYYYYYYYYYYYYYY"
};
