/* XPM */
static char *result[] = {
/* columns rows colors chars-per-pixel */
"64 64 3 1 ",
"  c #181E41",
". c #1D3258",
"X c #1E5178",
/* pixels */
" .  .X...    .  XX..XX.  .X.. ..     ....      XXXXXX   .XX.... ",
".XXX    X   .   ...X... . XXXX   .    .  .    XXXXX.X.  XX      ",
" .XXX. .X        ....   . ...X. ...    ..   ..XXXXX.   .X.      ",
" ..XX      .XXXX      ..   ...X.   .X .  .  .X.X.   ....... ... ",
"   . . .      ..XXX .. XX    ...    ..X. . .......  .....    ...",
".    ..    .   ...X. XX  X.   .. .  ..X. . . ......            .",
". . .   . .XX. .....X  .     . .X..   .. .   .....X. .XXX...  ..",
"   .X.   ..XX   ......     XX   .. .. . ..  .XXXX.   XXX.     . ",
"X   .   .  .XXX   ..   ...  .   .. XX. .          ......     .XX",
"..     .. ..XXXX. .  ..XXX.  .   . .. .   ...   .XXX....  .XXXX.",
".  XX     XXXXX. .XX   .  ..    .  .     X   . .XXX..... .XXX...",
"   ..  XX .X....  ... .      .. .XX .  ...   ..XXXXX...   ..XX  ",
"..     .   X....        .XX XX. .X.       ..   ......    .X..  .",
"..  ...    ......   .XXX ..      ..  X.    .XX ..........     XX",
"   .XXX     ..XXXX. XXXX    .     .  ..  ... .. . ....     .XXX.",
" .XXXX .  .  .XX.   ...X      ....   ....  ..   .   ..   XXXXXX ",
".XXX.  .  ..   ....  .XXXX  .         ..  .   ..XX.   .  .X..XX ",
" XXX. .X.   ..    .  ...XX. ... ..      .XXX..  . . ....  ...XXX",
"  XX.       .XXXXXX   .XX.  . .. .X.   . ...     ..  ..   ......",
"  .....  .    ..XXXX. .....       X .. .     XXXXX...    XXXX.  ",
"XXXXXX. .XXXX   ..XX   ....     ..   ..    XXXXX..     XXXX...  ",
"XXX...  XX.. .  .....  ....  .      .  ..  .XX...XXXXX  XXXX   .",
"XXX.  .X..   .  ..... ...  .XXX.... X.          ...XX       ...X",
"....    .    ...  ..        ..XXXXX..  .XX...   .....X XXXX   ..",
".  .   .... ....  .  .XXX .  .......     .    .  ....   .XXX  ..",
".    .        .     XXXX....         ..  .. ...        ....  ...",
"    . .   . .   ..  .X.XXXX.     .XX..  ..   ..   XXXXX...   .. ",
"  XX.  .X  ..   XX.  ....... XXX             .  XXXX.      ..   ",
". .. .     XXX. ...  .             . ..     .   XXX....         ",
"X.  XX .XX .    .         ...   .. . . ...       .....XXXXXX  .X",
".     . .. .XX.     .. .        .      .   ...      .....XXXXX  ",
"  .XX..            .XX..  XX..   .  .XX.  ...   ..      ...XXX. ",
"........   ....  ..   XX. . .XX.        ..XX....  ...          .",
".X     .. .XXX.       X.. . . ..XX..  .. .X.XX.     .....    ...",
"..... XX.   ..  ....       ..   ..X  .XX.  ...  ...        .    ",
"..X.. XX  .X     .XX . .. . XX    . . ..  ..    .XXX.     XXXXXX",
".    X...  .   XXX..  ..XX.   ..     ....  .      ....  XXXXXXX.",
". .....    .  XXX..   XXXXX    . .     ..  ...     .     .XXXXX ",
"X......  ...XX...     X...    .  XX.   . ...     .      . ....XX",
"XX.  . ..      .    ....... XX. ... .    .. .  ....  ..       XX",
"...         XXX.. ....          ..  ..       .       . .  XXXX..",
"....    XXXX.....   .  .. ......       ..X   ..  XXX. .. .......",
"      XXXX....     XX...    .....   .XXX. . ... ...X.   ..   .  ",
"X . XXXXXXXXX.XXXXXXXXXX..   ..... .XXXX .            .XXX.XXXXX",
"XX  .XXX......X...X  XXXX. XX   ..  ....    . .X. ... ....XXXXXX",
"X.    ...    ...... XXXX.   ..            .   .  ...   .XXXXXXXX",
"XX..   .   XXXXXX..XXXX...   .   .XXX...    ..   .    .......X..",
"XXXXX..  XXXX............ .       ...X. .  X    .. ......XXX..XX",
"..X      XXXXXXX......      ..           .... .XX.       ...XX..",
"..... .   XX.......     X.    .......      .        ....   .....",
"...    .  ...           .  .       ... ..     ... ...   ...  XX.",
"....   ......   .   X.   ...  .      .     . ...  ..XX.     X...",
".... ...XXXXX . .XX ..       .......    .        .X.XXX     .  .",
"..  XXX...XXXX   ...  ...  ...XX.         ..  . .....X.XX    ...",
"    XX..XXXX    .  .      ..XXXX.     XXX   . .  ..XXXXXXXXXXX..",
"...X...       XX.        XXXXX    .  XXXX.  .XXX.  ......XX.... ",
"..  XX....     X    ..X. ..XX.   . .XXX.. .    ..   .....X.XX.  ",
". .          .    XXXX. .XXXX.. ..    ..... .   ... ..   .....  ",
"....    . .      XXXXX   X.XXXX .XXXX    . XX.  ..       .....  ",
"X ....        .    X.X. XXXX..  ...XXX    ..        . . .....  X",
"X.     .     .. . .....  .....  .....X.    X. .  .....  .     XX",
"X     . .          .....    ..  ........    ..    ...  ....  XXX",
".....     .    ...    ....     ..      ..    .  .           ....",
"      XX    ..   .XXX.... XX. ..         ..      .X.. .XXXXXX.  "
};
