/* XPM */
static char *result[] = {
/* columns rows colors chars-per-pixel */
"64 64 204 2 ",
"   c #010101",
".  c #0B0100",
"X  c #000803",
"o  c #03030A",
"O  c #020A09",
"+  c #090A0F",
"@  c #040011",
"#  c #0F1112",
"$  c #101111",
"%  c #131218",
"&  c #133C39",
"*  c #292F2F",
"=  c #24282C",
"-  c #272F32",
";  c #292E31",
":  c #2C3234",
">  c #2A3538",
",  c #333E3D",
"<  c #313236",
"1  c #302C29",
"2  c #5B0D00",
"3  c #5E1D01",
"4  c #621100",
"5  c #611D01",
"6  c #6B1E01",
"7  c #731D02",
"8  c #771904",
"9  c #5C2000",
"0  c #42381B",
"q  c #662301",
"w  c #6C2401",
"e  c #6E2A01",
"r  c #662800",
"t  c #722601",
"y  c #792401",
"u  c #732A02",
"i  c #7A2800",
"p  c #732B09",
"a  c #793004",
"s  c #6B3211",
"d  c #7B381A",
"f  c #4A3D2A",
"g  c #33413E",
"h  c #3A453F",
"j  c #183E41",
"k  c #154445",
"l  c #2B4245",
"z  c #394444",
"x  c #384848",
"c  c #277271",
"v  c #4F504B",
"b  c #5C5E59",
"n  c #5C4A40",
"m  c #596F78",
"M  c #6B766D",
"N  c #707C72",
"B  c #812D05",
"V  c #883807",
"C  c #853B15",
"Z  c #8B3D1C",
"A  c #883B12",
"S  c #993E11",
"D  c #93451D",
"F  c #98471B",
"G  c #944622",
"H  c #9C4720",
"J  c #934924",
"K  c #9D4B23",
"L  c #9B4D2A",
"P  c #9A5029",
"I  c #A04B23",
"U  c #B85823",
"Y  c #B1572E",
"T  c #A0653F",
"R  c #BB653F",
"E  c #BE6034",
"W  c #C15F38",
"Q  c #D86B33",
"!  c #C26436",
"~  c #ED7E3F",
"^  c #E9773B",
"/  c #B25E44",
"(  c #B66646",
")  c #BB6644",
"_  c #B56944",
"`  c #BB6945",
"'  c #B66648",
"]  c #BD6649",
"[  c #BB6A4A",
"{  c #B5694A",
"}  c #BF7341",
"|  c #B5795F",
" . c #B57E63",
".. c #C26A46",
"X. c #CE6C46",
"o. c #C16D4C",
"O. c #CB6D4A",
"+. c #C1674A",
"@. c #D36E45",
"#. c #D96D48",
"$. c #C3714C",
"%. c #CB724B",
"&. c #C97247",
"*. c #D47145",
"=. c #DA7244",
"-. c #D67149",
";. c #DD754C",
":. c #DC784A",
">. c #C27053",
",. c #D87750",
"<. c #EE7D44",
"1. c #EE7F49",
"2. c #E0774F",
"3. c #FE7E42",
"4. c #F27E4A",
"5. c #F17D42",
"6. c #FC833F",
"7. c #F2813F",
"8. c #B58873",
"9. c #BEA175",
"0. c #D5935F",
"q. c #EE814A",
"w. c #F58146",
"e. c #FF8445",
"r. c #FE8945",
"t. c #F58048",
"y. c #FE8449",
"u. c #FF8B4D",
"i. c #FE8550",
"p. c #FD8D51",
"a. c #FE9D5B",
"s. c #FE965A",
"d. c #F89247",
"f. c #C3A56D",
"g. c #C7AB6D",
"h. c #E6AE6D",
"j. c #EAAE6E",
"k. c #EAB16F",
"l. c #E6B068",
"z. c #F2B26F",
"x. c #E9AE70",
"c. c #F2B271",
"v. c #FFCC7B",
"b. c #FDC879",
"n. c #FFD17C",
"m. c #5A7B81",
"M. c #38A8A6",
"N. c #72888F",
"B. c #6E8A94",
"V. c #6C8C9B",
"C. c #728993",
"Z. c #738C9B",
"A. c #738697",
"S. c #6D959D",
"D. c #66999E",
"F. c #6B999D",
"G. c #6C9397",
"H. c #71939D",
"J. c #709E9E",
"K. c #718EA2",
"L. c #6C94A1",
"P. c #6C9CA3",
"I. c #6D9DA9",
"U. c #6797A1",
"Y. c #7293A3",
"T. c #7098A2",
"R. c #739CAE",
"E. c #4FB3B1",
"W. c #5EB6BA",
"Q. c #76A2AA",
"!. c #64B4BA",
"~. c #63B9BB",
"^. c #71A6B1",
"/. c #66B9C3",
"(. c #5BCCCD",
"). c #5DC5C8",
"_. c #58D0CE",
"`. c #5CCDD3",
"'. c #58D7D8",
"]. c #60C3C9",
"[. c #54EAEB",
"{. c #57E3E5",
"}. c #54F2EE",
"|. c #4AEEF0",
" X c #45FFFD",
".X c #4BFEFE",
"XX c #48FCF6",
"oX c #54F3F1",
"OX c #52FEFE",
"+X c #58FCFE",
"@X c #5CF5FF",
"#X c #53E9E9",
"$X c #8A898D",
"%X c #AC9688",
"&X c #ACA19B",
"*X c #9FB2B8",
"=X c #A6A5A5",
"-X c #A3AEAF",
";X c #A7A9A7",
":X c #A6B0B3",
">X c #FFD582",
",X c #FFDD87",
"<X c #FCC583",
"1X c None",
/* pixels */
"1X1X1X1X1X1X1X1X1X1X1X1X1X1X1X1X1X1X1X1X1X1X1X1X1X1X                  o p t y u p t t i u 1X1X1X1X1X1X1X1X1X1X1X1X1X1X1X1X1X1X1X",
"1X1X1X1X1X1X1X1X1X1X1X1X1X1X1X1X1X1X1X1X1X1X        +X.X.X X.X.X.X.X Xi u.e.e.v.,Xe u.1.) e 2 1X1X1X1X1X1X1X1X1X1X1X1X1X1X1X1X1X",
"1X1X1X1X1X1X1X1X1X1X1X1X1X1X1X1X1X1X1X       X X.X X XXXV.S.H.D.I.M 9 e.4.3.v.( >.y u.1.' e w q 1X1X1X1X1X1X1X1X1X1X1X1X1X1X1X1X",
"1X1X1X1X1X1X1X1X1X1X1X1X1X1X1X1Xk k j OX{.{.S.F.S.S.S.L..XH.M N S U r.e.n.>Xr.( } y u.w.*.u 5 r.C 1X1X1X1X1X1X1X1X1X1X1X1X1X1X1X",
"1X1X1X1X1X1X1X1X1X1X1X1X1XO O O .X.XOX.X^.P.L.U.L.S.Z.I.XXZ.d e e.e.e.r.b.<Xy.) $.t p.t.@.t 5 e.] G w 1X1X1X1X1X1X1X1X1X1X1X1X1X",
"1X1X1X1X1X1X1X1X1X1X  o +X X/.Y.F.S.S.S.K.C..X.     < > : : s e e.e.3.v.6 w y.( [ t p.t.@.t 5 e.] D 7 +X@   1X1X1X1X1X1X1X1X1X1X",
"1X1X1X1X1X1X1X1X1X  .XOXS.Z.'..XF.S.S.P.+     : : : ; * 1 y 7.e.e.e.3.<X6 q y.-.:.e p.t.@.t 5 e.` D u y .X+X  1X1X1X1X1X1X1X1X1X",
"1X1X1X1X1X1X1X  &  XS.S.L.U.F.H.XX      ; : ; ; ; ; ; ; ; e <.e.e.r.y.v.w w y.O.;.e u.t.@.t 5 r.` G e e R.L. X    1X1X1X1X1X1X1X",
"1X1X1X1X1X1X  OX[.F.S.S.S.D.S.S.  < ; ; ; ; ; ; ; ; * ; * e ~ e.e.a.v.` t w r.X.;.e u.w.@.i 3 y.*.H u t I.S.S..X+X  1X1X1X1X1X1X",
"1X1X1X1X1X1X  .X.XOXS.S.S.S.,   ; = ; ; ; ; ; ; ; ; ; : i y.e.e.e.a.n.` w w y.X.;.u u.4.) t 3 y.@.K 6 y.q y .X.X+X  1X1X1X1X1X1X",
"1X1X1X1X$    XB.S.K. X XY.. = - ; ; ; ; ; ; ; ; ; ; ; : e r.e.e.y.a.n.` t w y.X.;.e u.q.] t 5 y.@.H q e.9 p D.Y.Z.XX  b 1X1X1X1X",
"1X1X1X1X% X XXB.S.S.S.Q.  ; - - ; ; ; ; ; ; ; ; ; ; ; : t e.e.e.r.a.n.) w w y.X.;.e u.q.' t 5 i.@.H q e.5 t S.L.N..X. b 1X1X1X1X",
"1X1X1X  |. XS.S.S.T.Q.^.  ; ; ; ; ; ; ; ; ; ; ; ; ; - - 6 r.e.e.3.a.n.` w w y.@.;.e p.1.) t 3 3.@.H w e.3 w I.P.U.H.XXM.  1X1X1X",
"1X1X1Xc ).'.).(.].S.    ; ; ; ; ; ; ; ; ; ; ; ; ; * i p y.y.3.r.v.h.) @.w e y...,.e u.3.@.e 5 y.@.H q y.( ` y ).].).`.E.c 1X1X1X",
"1X    .XT.G.C.C.m   < : ; ; ; ; ; ; ; ; ; ; ; ; - - i p e.e.e.e.v.j.) @.w w r.' } p u.w.*.u 3 y.@.H q r.O.*.t L.C.C.S.]..X    1X",
"1X    .XP.S.J.T.m   ; ; ; ; ; ; ; ; ; ; ; ; ; : - : i p e.e.e.e.v.h.) @.w w e.' [ p u.4.@.i 5 y.@.H 6 e.@.-.w     S.F./..X    1X",
"1X    .XP.S.S.S.m.  ; ; ; ; ; ; ; ; ; ; ; ; ; ; - * i p r.r.e.e.v.h.) ` r w r.( [ t u.1.( t 3 y.@.H q e.X.-.e o   S.S.~..X    1X",
"  +X.XH.D.F.L.. # : ; ; ; ; ; ; ; ; ; ; ; ; ; ; - * i a e.y.A w p u u i e w y._ o.u u.q.` t 5 e.] D q r.( ` t   o L.G.F.F..X@X  ",
"  +X.X XXX.X X  # ; ; ; ; ; ; ; ; ; ; ; ; ; ; ; - - i p e.i ~ e.r.e.y.w.e t u t w p u.q.` e 5 e.) D q y.( [ i     XX.X.X X.XOX  ",
"  +X XL.L.S.U.  # ; ; ; ; ; ; ; ; ; ; ; ; ; ; ; : : i p e.w ~ e.` ) ) [ 3.r.e.e.p.i u u e u 3 r.[ D q y.( ` u X   L.H.S.Y..XOX  ",
"  OX.XS.S.S.L.  # ; ; ; ; ; ; ; ; ; ; ; ; ; ; ; - ; i a 3.w 5.w.) +.) ;X) [ [ R _ r.e.e.e.w y w t e q e./ ` u     S.S.S.S..X.X  ",
"  OX.XY.S.S.H.  # ; ; ; ; ; ; ; ; ; ; ; ; ; ; ; - ; i p e.e.V 6 u t w $.[ [ $.*X;XR ) R ) 6.u.r.r.Y q w w q i   . F.S.L.S..XOX  ",
"  OX.X[.[.[.[.X # ; ; ; ; ; ; ; ; ; ; ; ; ; ; ; - ; i a e.e.y.e.h.0./ y u e i d C C C L | _ ` _ &X8.X.&.$.&.^ u 8 [.{.{.[..XOX  ",
"  +X.X~.~.~.~.. # ; ; ; ; ; ; ; ; ; ; ; ; ; ; ; ; ; i p e.e.y.3.v.c.[ Y u w Q w u u i p D A D A  .>.R ] %X%X*.e 8 !.!.!./. XOX  ",
"  OX.XS.S.S.H.  # : * * ; ; ; ; ; ; ; ; ; ; ; ; ; ; i p e.e.e.e.v.j.) @.w w r.[ [ u s.^ e e u t w w 6 q ' ( [ u 7 V.S.S.S..XOX  ",
"  OX.XS.S.S.L.  # : ; ; ; ; ; ; ; ; ; ; ; ; ; ; - ; i a y.e.e.e.v.c.=.[ w w y.( o.u u.<.` e 5 e.t t p t B u t O   H.S.S.S..XOX  ",
"  OX.XS.H.S.S.  # ; ; ; ; ; ; ; ; ; ; ; ; ; ; ; - - i p e.e.e.e.v.j.*.+.e w r.' o.u u.1.` e 5 r.) G w e.5 t e o   L.S.S.S..X.X  ",
"  +XOX.X.X.XXX  # ; ; ; ; ; ; ; ; ; = ; ; ; ; ; - - i a e.e.y.e.v.z.@.) w w y.` o.u u.1.` u 5 e.] G q e.{ [ i   X OX.X.X.X.XOX  ",
"  +X.XF.S.S.S.  # ; ; ; ; ; ; ; ; ; ; ; ; ; ; ; - : i a r.r.e.e.v.l...x u y e._ o.u u.3.@.w 5 e.) J q y.) [ i     U.S.S.S..XOX  ",
"  OX.XS.S.S.H.  # ; ; ; ; ; ; ; ; ; ; ; ; ; ; ; ; ; u a e.y.y.e.v.f., =X, l e.( o.u u.4.@.u 5 e.` J q r.` [ u     S.S.S.S..XOX  ",
"  OX.XH.S.S.S.  # : ; ; ; ; ; ; ; ; ; ; ; ; ; ; ; ; i p e.y.e.e.v.f., =Xg l e.( o.u u.4.#.u 5 e.` J q r.X.-.u     S.S.S.S..X.X  ",
"  XX.XH.T.T.S.  # ; ; ; ; ; ; ; ; ; ; ; ; ; ; ; - ; i p e.e.e.e.v.9.z ;Xh g e.[ &.u u.4.@.u 5 r...J 6 e.X.-.u     F.L.S.G..XOX  ",
"  .X XP.P.P.I.. # ; ; ; ; ; ; ; ; ; ; ; ; ; ; ; : ; i a y.e.e.e.v.h...z i w y.X.;.w u.t.*.e 5 y.@.I q y.@.-.t     L.L.P.F. XOX  ",
"  OX XS.S.S.H.  # ; ; ; ; * ; ; ; ; ; ; ; ; ; ; ; ; i p e.e.e.e.v.z.=.z i q y.*.;.u u.1.) u 5 y.@.I w y.%.Q w o   H.S.S.F..XOX  ",
"  OX.XS.S.S.L.  # ; ; ; ; ; ; ; ; ; ; ; ; ; ; ; ; ; i p e.e.e.y.v.z.=.z u w y.X.;.u u.1.` t 5 y.@.K q y._ +.t o   H.S.S.S..XOX  ",
"  +X.XH.S.F.S.  # ; ; ; ; ; ; ; ; ; ; ; ; ; ; ; - ; i p e.e.e.e.v.c.=.z u w y.*.;.u u.4.` u 5 r.( J q e.( [ i X   S.F.F.V..XOX  ",
"  OX.X.X.X.X.X  # ; ; ; ; ; ; ; ; ; ; ; ; ; ; ; - ; i a e.e.e.e.v.k.` z i w r.X.;.e u.4.@.e 5 e.[ J q y.@.@.e   X .X.X.X.XXXOX  ",
"  +XXXS.S.S.F.  # : ; ; ; ; ; ; ; ; ; ; ; ; ; ; - ; i p e.e.y.e.v.k...z u e y.X.;.u u.4.#.u 5 e.] J q 3.X.;.u o o S.S.S.U..XOX  ",
"  OX.XS.S.S.S.  $ ; ; ; ; ; ; ; ; ; ; ; ; ; ; ; - ; i a e.y.e.y.v.f., =X, l y.#.:.u u.4.#.e 3 r.` J q e.X.#.u     S.S.S.S..XOX  ",
"  +X.XL.S.S.H.  # ; ; ; ; ; ; ; ; ; ; ; ; ; ; ; - : i p e.e.e.e.v.f., =X, l y._ $.u r.w.@.t q y.@.I q r.X.#.t     S.S.S.S..XOX  ",
"  OX.X/.!.!.!.  # ; ; ; ; ; ; ; ; ; ; ; ; ; ; ; - : i p r.r.e.e.v.g.n $Xf 0 y.) o.u u.4.O.i 9 y.@.I q y.+.%.u     W.!.!.~..XOX  ",
"  OX XoX}.}.oXO # ; ; ; ; ; ; ; ; ; ; ; ; ; ; ; - * i a e.e.e.e.v.h.+.v e w y.) o.u u.1.) y 3 y.-.L q e.( ` u   X }.oXoX[..XOX  ",
"  OX.XS.S.S.H.  # ; ; ; ; ; ; ; ; ; ; ; ; * ; ; - - i p y.e.e.e.v.k.` @.w w e.%.,.u u.1.) u 5 e.[ J q r.( ` u     S.S.S.S..XOX  ",
"  OX.XS.S.S.S.  # ; ; ; ; ; ; ; ; ; ; ; ; - - = - : i p e.e.e.y.v.z.X.*.w w y.X.-.u u.1.) t 5 r.) J 6 e.3 w u p 8 S.T.F.S. XOX  ",
"  OX.XH.S.S.H.  # : ; ; ; ; ; ; ; ; ; ; ; ; * ; ; ; i a e.e.e.e.v.z.-.` w w y.@.;.u u.q._ i 5 r.e t t u u.e.r.p p w P.F.S..XOX  ",
"  OX.X.X.X.X.X  # ; ; ; ; ; ; ; ; ; ; ; ; ; ; ; ; ; i p e.e.e.e.v.z.@.` w e y.{ $.u y.Q e e e u i.r.y.y.{ ` ) _ $.u  XOX X XOX  ",
"  OX.XS.S.S.H.  # ; ; ; ; ; ; ; ; ; ; ; ; ; ; ; ; ; i p e.e.e.e.v.z.-.[ t y r.q i u t F r.r.e.y.[ ( ] ` -X=X_ { ..u L.G.S..X.X  ",
"  OX XS.S.S.H.  # ; ; ; ; ; ; ; ; ; ; ; ; ; ; ; : ; i a w.e.e.e.v.k...e w r t y.e.r.e.q.R ' ` _ ;X8...[ [ [ i i 7 S.S.S.S..XOX  ",
"  OX XS.S.S.L.  # ; ; ; ; ; ; ; ; ; ; ; ; ; ; ; ; ; y p r.d.B 6 5 6 3 r.6.r.e.! _ ` _  .-X$.*.R >.L u y y i e . . L.S.S.S..XOX  ",
"  +X.XA.C.C.C.. # ; ; ; ; ; ; ; ; ; ; ; ; * ; ; ; ; i a e.e ~ r.y.r.e.E E ] ) -X:X..o.o.$.w e t u u w 3 5 w u     A.B.C.B..XOX  ",
"  +X.X`.(._.(.  # : ; ; ; ; ; ; ; ; ; ; ; ; ; ; - * i p e.i ~ y._ ` ) 8.F L K L P i w u e e w Y G C q r.+.O.t o   `.(.(._..XOX  ",
"  .XOXL.S.S.S.  # ; ; ; ; ; ; ; ; ; ; ; ; ; ; ; - : u a r.u.B 6 t w w w w u u u u u s.p.2.t 3 i.#.F q r.O.*.u .   L.S.S.U..XOX  ",
"  OX.XS.S.S.T.  # ; ; ; ; ; ; ; ; ; ; ; ; ; ; : - ; i u u.e.y.~ t e u t e w e.( $.u u.4.@.u 5 y.@.I q e.' ( u X   S.S.S.F..X.X  ",
"  +X.XY.D.S.S.o # ; * * * * * * * * * * * ; ; * ; * i a e.e.e.r.v.c.#.) w e e.*.;.u u.w.@.e 5 y.@.I w y.( ` y     F.S.F.S..XOX  ",
"1X                                                  a a e.e.y.e.v.k.*.@.t w e.X.;.u u.1.` u 5 e.Q I q e.( { e X               1X",
"1X1X1X1X1X1X1X1X1X1X1X1X1X1X1X1X1X1X1X1X1X1X1X1X1X1X4 a e.e.e.e.v.h.R @.w w e.@.;.u u.4.) t 5 e.[ J q y.5 w 1X1X1X1X1X1X1X1X1X1X",
"1X1X1X1X1X1X1X1X1X1X1X1X1X1X1X1X1X1X1X1X1X1X1X1X1X1X4 a y.e.e.e.v.k.) *.t w r.@.;.t p.1.) t 5 r.[ H p e 1X1X1X1X1X1X1X1X1X1X1X1X",
"1X1X1X1X1X1X1X1X1X1X1X1X1X1X1X1X1X1X1X1X1X1X1X1X1X1X4 p e.e.e.e.v.h.` @.w w y.X.:.u u.4.) u 5 u.w 1X1X1X1X1X1X1X1X1X1X1X1X1X1X1X",
"1X1X1X1X1X1X1X1X1X1X1X1X1X1X1X1X1X1X1X1X1X1X1X1X1X1X4 a e.e.e.y.v.h.R =.w w r.' o.u p.t.o.6 5 5 1X1X1X1X1X1X1X1X1X1X1X1X1X1X1X1X",
"1X1X1X1X1X1X1X1X1X1X1X1X1X1X1X1X1X1X1X1X1X1X1X1X1X1X4 u e.e.e.e.v.j.[ ` w e y.) [ t F T 1X1X1X1X1X1X1X1X1X1X1X1X1X1X1X1X1X1X1X1X",
"1X1X1X1X1X1X1X1X1X1X1X1X1X1X1X1X1X1X1X1X1X1X1X1X1X1X4 a e.e.e.e.v.j.] ] w w y.D Z 1X1X1X1X1X1X1X1X1X1X1X1X1X1X1X1X1X1X1X1X1X1X1X",
"1X1X1X1X1X1X1X1X1X1X1X1X1X1X1X1X1X1X1X1X1X1X1X1X1X1X4 p e.e.y.e.v.h.] ] i e 6 1X1X1X1X1X1X1X1X1X1X1X1X1X1X1X1X1X1X1X1X1X1X1X1X1X",
"1X1X1X1X1X1X1X1X1X1X1X1X1X1X1X1X1X1X1X1X1X1X1X1X1X1X4 a e.e.y.r.v.x.>.w 1X1X1X1X1X1X1X1X1X1X1X1X1X1X1X1X1X1X1X1X1X1X1X1X1X1X1X1X",
"1X1X1X1X1X1X1X1X1X1X1X1X1X1X1X1X1X1X1X1X1X1X1X1X1X1X1X1Xu u w w y t w 1X1X1X1X1X1X1X1X1X1X1X1X1X1X1X1X1X1X1X1X1X1X1X1X1X1X1X1X1X"
};
