/* XPM */
static char *result[] = {
/* columns rows colors chars-per-pixel */
"64 64 197 2 ",
"   c #010101",
".  c #0A0102",
"X  c #02020A",
"o  c #060C09",
"O  c #1D0D05",
"+  c #16090B",
"@  c #1E1101",
"#  c #010012",
"$  c #1B1819",
"%  c #200F07",
"&  c #380700",
"*  c #351606",
"=  c #1D1C24",
"-  c #112E32",
";  c #1A2D30",
":  c #22262C",
">  c #282B2B",
",  c #27302F",
"<  c #293C3D",
"1  c #4E1F0F",
"2  c #5F1D00",
"3  c #611E01",
"4  c #6B1B02",
"5  c #6A1705",
"6  c #741E02",
"7  c #5D2205",
"8  c #562309",
"9  c #50260F",
"0  c #632204",
"q  c #6B2501",
"w  c #6D2A02",
"e  c #632609",
"r  c #68270A",
"t  c #722600",
"y  c #7A2500",
"u  c #732A01",
"i  c #7A2D03",
"p  c #742D09",
"a  c #792B08",
"s  c #6D3004",
"d  c #7A3103",
"f  c #7D320B",
"g  c #753106",
"h  c #7C3B15",
"j  c #2E413F",
"k  c #41443D",
"l  c #74523B",
"z  c #2A3D41",
"x  c #344445",
"c  c #394442",
"v  c #304148",
"b  c #2D464A",
"n  c #1B7979",
"m  c #26797A",
"M  c #4F5B5C",
"N  c #73564B",
"B  c #775646",
"V  c #605968",
"C  c #57767A",
"Z  c #416364",
"A  c #797E7E",
"S  c #833508",
"D  c #833811",
"F  c #974A25",
"G  c #A34C25",
"H  c #A45534",
"J  c #A95D3B",
"K  c #A95636",
"L  c #B65E3B",
"P  c #B25521",
"I  c #BB643C",
"U  c #BC6A3C",
"Y  c #C25F38",
"T  c #C1633C",
"R  c #D56A39",
"E  c #FE7F3E",
"W  c #B56645",
"Q  c #BA6645",
"!  c #B76945",
"~  c #BB6846",
"^  c #B76648",
"/  c #BB6749",
"(  c #B56949",
")  c #BB6A49",
"_  c #B7775C",
"`  c #B47D63",
"'  c #B37F6A",
"]  c #AD7D66",
"[  c #C36644",
"{  c #C46C46",
"}  c #CE6E46",
"|  c #C36E4C",
" . c #CC6E49",
".. c #D46E44",
"X. c #D96D46",
"o. c #D36F48",
"O. c #CD7044",
"+. c #CC704A",
"@. c #C5704E",
"#. c #D47145",
"$. c #D3714A",
"%. c #DE764B",
"&. c #DC784E",
"*. c #D97046",
"=. c #C36D52",
"-. c #CA7351",
";. c #E97E4A",
":. c #FF7F40",
">. c #E57D50",
",. c #79857E",
"<. c #FF823E",
"1. c #B3806D",
"2. c #FE8545",
"3. c #FD8B45",
"4. c #F0814C",
"5. c #FF8448",
"6. c #FE8A4B",
"7. c #F78644",
"8. c #FE914E",
"9. c #FE8E51",
"0. c #F28854",
"q. c #FE9251",
"w. c #E68244",
"e. c #5F7D85",
"r. c #2B8A8E",
"t. c #329893",
"y. c #38AFB2",
"u. c #5C8585",
"i. c #6C8889",
"p. c #73878C",
"a. c #76908F",
"s. c #6A8F96",
"d. c #6D8F9A",
"f. c #738592",
"g. c #728B94",
"h. c #718C99",
"j. c #798495",
"k. c #6D9396",
"l. c #66959C",
"z. c #6D959C",
"x. c #67989F",
"c. c #6C999D",
"v. c #6A9695",
"b. c #71939C",
"n. c #6E8FA1",
"m. c #6D95A2",
"M. c #6B9BA2",
"N. c #6B9CAA",
"B. c #679CA2",
"V. c #7394A2",
"C. c #749BAB",
"Z. c #709BA2",
"A. c #6C9FB0",
"S. c #69AAAD",
"D. c #66A6AA",
"F. c #75A3AB",
"G. c #77A4AB",
"H. c #6AAAB7",
"J. c #77A9B7",
"K. c #65B3BB",
"L. c #69B4B9",
"P. c #36C3BD",
"I. c #5BBDC0",
"U. c #66BEC0",
"Y. c #63B7C1",
"T. c #39D1CD",
"R. c #3CEFEC",
"E. c #3DFFFE",
"W. c #5DCACD",
"Q. c #5ECED2",
"!. c #4BCFD9",
"~. c #60C0CC",
"^. c #60D6DA",
"/. c #52E3E7",
"(. c #55E9E9",
"). c #52F8EE",
"_. c #45FFF5",
"`. c #4AFEF4",
"'. c #45FFFD",
"]. c #4BFFFE",
"[. c #55F2F1",
"{. c #54FCF6",
"}. c #53FEFE",
"|. c #5AFEFF",
" X c #5BF7F4",
".X c #4CE7EB",
"XX c #AE8F83",
"oX c #A79F9C",
"OX c #A6A49E",
"+X c #9FAFAF",
"@X c #9FADB6",
"#X c #A4AAAC",
"$X c #A9AEAC",
"%X c #AAA7A5",
"&X c #A4ACB6",
"*X c #AAB6AC",
"=X c None",
/* pixels */
"=X=X=X=X=X=X=X=X=X=X=X=X=X=X=X=X=X=X=X=X=X=X=X=X=X=X                        =X=X=X=X=X=X=X=X=X=X=X=X=X=X=X=X=X=X=X=X=X=X=X=X=X=X",
"=X=X=X=X=X=X=X=X=X=X=X=X=X=X=X=X=X=X=X=X=X=X        ].].].].].].].].].].`.}.        =X=X=X=X=X=X=X=X=X=X=X=X=X=X=X=X=X=X=X=X=X=X",
"=X=X=X=X=X=X=X=X=X=X=X=X=X=X=X=X=X=X=X    X ].].].].}.].n.z.z.z.z.z.x.z.{.].].].]._.      =X=X=X=X=X=X=X=X=X=X=X=X=X=X=X=X=X=X=X",
"=X=X=X=X=X=X=X=X=X=X=X=X=X=X=X=XX     ].].'.c.z.z.c.z.g.'.z.z.z.z.z.z.].M.b.z.z.z.V.'.'.].      =X=X=X=X=X=X=X=X=X=X=X=X=X=X=X=X",
"=X=X=X=X=X=X=X=X=X=X=X=X=X      ].'.].].K.l.m.b.b.z.z.k.].h.z.z.z.z.z.].c.z.b.c.b.z.c.c.].].].].  X   =X=X=X=X=X=X=X=X=X=X=X=X=X",
"=X=X=X=X=X=X=X=X=X=X=X=X. }.|.|.g.j.g.g./.'.l.M.z.c.z.z.                i.m.c.z.l.x.'.`.h.g.g.a.}.{.}.X =X=X=X=X=X=X=X=X=X=X=X=X",
"=X=X=X=X=X=X=X=X=X=XX X ].].Q.v.z.z.z.c.h.s.].X         i d d d i i d u           ].g.h.z.z.z.b.g.L.].|.#   =X=X=X=X=X=X=X=X=X=X",
"=X=X=X=X=X=X=X=X=X> T.T.S.S.~.(.b.k.z.l.x $ - r e e e 7 t t t t t u t t e e 0 e e - $ : z.z.z.M.(.^.S.S.T.!.> =X=X=X=X=X=X=X=X=X",
"=X=X=X=X=X=X=X, k P.K.Y.z.b.M.H.(.$ : : 9 3 7 u w t t t R J J J J J J J f t t t p 8 8 1 : : = /.J.H.z.z.L.S.y.Z , =X=X=X=X=X=X=X",
"=X=X=X=X=X=X=Xn m W.l.c.h.m.c.z.r.& * * r u t F F G t q 6./ ~ ~ ~ ~ ~ ~ u q P G G u t w * * & r.b.l.z.z.M.z.W.t.m =X=X=X=X=X=X=X",
"=X=X=X=X=X=X  }.}.S.k.z.z.k.s.u.+ i u t D D D | ~ ..q q 2.Q ~ ~ ~ ~ ~ ~ i 3 2...*.D h D t w S + e.i.z.z.B.c.F.(.}.X =X=X=X=X=X=X",
"=X=X=X=X=X=Xo ).].}.B.N.z.s.Z . t f f a K ~ ~ Q ~ #.w q 2.Q ^ ~ ~ / ~ ~ p 3 2.| #...^ ! t i S u o < z.z.C.V.].].{.o =X=X=X=X=X=X",
"=X=X=X=XM . ].g.c.b.'.`.G.  * t t 6.2.$.| Q ^ ~ Q #.w q 3.Q Q ~ / ~ ~ ~ i 0 5.W U ..~ ~ #.#.%.q t 1   G.'.E.z.z.h.`.  o =X=X=X=X",
"=X=X=X=XV X ].h.M.b.z.G.  i q 4 p 6.5.#.{ Q ~ X.R $.w q 2.Q ~ ~ Q ~ ~ ~ g 2 5.W ~ #.R *.#.*.%.y 4 r y   G.z.z.z.s.}.  + =X=X=X=X",
"=X=X=X  y.'.b.m.c.z.G.J.  i F ~ t q.5...#.#.) X.R Q w q 2.^ Q ^ ..$.~ ~ a 2 2.W ~ / ......*.%.w 2.R u   J.G.z.c.z.m.]..X  =X=X=X",
"=X=X=X  t.'.d.s.z.m.    t t F ~ t 8.2.^ +.#.) ..#./ q q 2.^ O...X.$.~ ~ g 0 5.W ~ ! ....#.! | t 2.R t u     z.b.h.d.'.R.  =X=X=X",
"=X    ].L.a.'.]._.m.    u | ~ ~ u 8.2./ } #.) +...~ t q 2.Q  .....$./ ~ p 2 5.W ~ ! #.O.*.! ) u 2.;.~ t     z.(.'.}.g.M.].    =X",
"=X    ].~.k.v.z.C.  u p t ) ~ ~ u 8.2./ O.....#.../ t q 2.Q  .....$.~ ~ p 2 :.W ~ ~ ~ { #.! @.u 2.;.) t a t   C z.z.b.M.].    =X",
"=X    ].L.l.b.z.Z.  u q ! ~ ~ ) t 8.2.) ~ W ..^ ^ ~ t q 2.Q } ....o./ ~ f 7 5.W ~ ~ ~ ) #.! ) u 2.;.~ ~ q t   C z.z.z.M.].    =X",
"=X    '.~.l.z.c.M.  u q ~ ~ ~ ~ t 8.2.) ~ W ../ ^ / t q 2.W } ..o.$.~ ~ g 2 5.W ~ ~ ~ ) #.#.&.u 2.;.~ ~ w t   C z.z.z.c.].    =X",
". }.'.V.c.z.z.    u u q ~ ~ ~ ) t q.2.~ ~ Q ..^ / ~ t q 2.^ +.../ ) ..~ d 3 2.W ~ ~ ~ ) #...%.t 2.;.Q ~ t u y @   m.c.m.c.`.|.  ",
"  }.].].}.].].  o u 5.3.~ ~ ~ ~ u 6.2.~ ~ ~ / ~ ~ ~ t q 2...*...) { ..~ p 3 5.W ~ ~ ~ ) ....%.t 2.;.Q ~ / ) t %   '.].].].].}.  ",
"  ].].m.b.z.c.    u 5.3.~ ~ ~ ~ u 8.2./ ~ ~ ~ ~ / ~ t q 2...| / ~ | ..~ a 7 5.W ~ ~ ~ ) #.#.%.t 2.;./ ~ ~ ) t %   c.z.z.z.].}.  ",
"  ].].z.z.z.z.    u 2.2.Q Q ~ ~ t q.E Q ~ ~ Q ~ ^ Q t 0 2... .) ! ) ../ i 3 <.~ T ~ ~ ) ~ ! @.w :.w.^ / ) { t %   V.v.z.z.].}.  ",
"  ].].z.z.b.z.6 t t t t t t t t t t t t t t t t t t t t t t u t t t t t t t t t t t t t t t t t t t t t t t t t t b.z.z.z.].}.  ",
"  }.].z.b.N.t 8.2.5.2.5.2.2.5.5.5.2.2.6.2.2.5.5.5.2.2.5.5.5.5.5.5.5.5.2.2.5.2.6.5.2.5.5.5.2.2.5.5.5.5.:.6.5.5.5.6.t N.z.z.].}.  ",
"  ].].}.].'.u 6.5.^ ! / Q &XXX~ ^ ! ~ ! W I %XI ( ^ ~ ! ! ! ! ! +XOX! ~ ! ^ ~ ! ! W #XOX) ! ) ^ ^ ) [ #XI W ! ! =.s '.].].].}.  ",
"  ].].H.K.I.t 6.5.) ) [ U ' _ [ ) ! ) ) Q I ` U ) ) ! ) ) ! ) ) _ 1.~ ~ ) ) ! ) ) U ` 1.~ ) ! ) ) ! T ] Y ^ ) ) =.w ~.K.K.'.}.  ",
"  ].'.b.z.c.l R R H H H H H H H H H H H H H H H H H H H H H H H H H H K H H H H H H H H H H H K H H H H H H H K K B m.z.c.].}.  ",
"  }.].z.z.z.c.4 r t u t t t u t t p t t u t t t t t t y w u t t u u t u w t u t t t u u u t u t q u t t t t w r 5 m.m.z.z.].}.  ",
"  }.].z.b.z.z.  X t g i g u u i t i t p p u u p p i q r t s u p u p w u s q p w i i p u p i d t p p p s p u p %   z.c.c.z.].}.  ",
"  ].].f.p.g.p.    t 6.6.~ ! ~ ~ t 8.2.#.{ ~ ) ~ ~ ~ t q 2...+.~ ~ ~ ~ $.a 3 2.( ~ ~ ~ ~ ~ ~ | t 2.w.! *.) ~ u % . e.p.f.f.'.].  ",
"  ].].'.'.'.'.  X u 6.2./ / ^ ) t 8.5.....#.~ ~ / / t 0 2...| ~ ~ ~ ! ..i 3 5.^ ~ / ~ Q ~ ~ ) u 2.4.W ..~ W t %   _.'.'.'.'.}.  ",
"  }.].b.z.z.c.    t 6.5.Q | ~ ^ t 8.2./ +.#.~ Q ~ / t q 2.......~ ~ Q ..i 3 5.W ~ ~ ~ ~ ~ ~ | u 2.4.*.$.*.#.t %   V.z.z.b.].}.  ",
"  ].].z.z.z.z.  X u 3.2.{ < B { t q.2./ } #.! Q Q ~ t q 2.^  ...~ | ..#.f 2 5.W ~ Q { ) { ~ | u 2.4.R ) *.#.u %   z.c.z.z.].}.  ",
"  }.].z.z.z.z.    s 6.3.j $XA c t 8.2.) } ..*.Q ~ ~ t q 2.Q  ...) ~ ..) p 2 5.W ^ ) $.$.Q ^ ) u 2.4.*.~ #.#.t %   z.l.b.z.].}.  ",
"  ].}.c.v.z.k.  . u 6.<.c *X,.c u 8.2.) ~ Q #.^ ) ~ t q 3.Q } ....o...~ g 2 2.W ~ ~ *.$.! ! ) u 2.;.R ) *.#.u %   k.l.z.z.].}.  ",
"  ].].'.`.].].  X u 3.8.~ b B ! p 6.2.) ~ Q ....#.~ t q <.Q ! ! ......~ p 0 5.W ~ U R $.! ! @.t 2.4...~ *...u %   '.}.].]._.}.  ",
"  ].].M.l.z.z.    u 6.3.) v N ! t 8.2./ ~ ~ ) o...Q t q 2.Q Q ~ ....#.~ a 2 5.W ~ ~ *.$.! ) ) d 2.4...X...O.t %   c.z.z.z.].|.  ",
"  }.'.z.z.z.z.  o w 6.2.! v N ^ t 8.2./ / / ^ X...Q q q 2./ ~ ~ ......~ g 2 5.W ) ! R $.U ~ ) u 2.;...X.~ ~ t %   b.l.z.z.].}.  ",
"  }.].z.b.z.z.  o w 6.2.~ v N ! t 8.2./ ^ ~ ~ X.#.~ q q 2.W ~ ~ ......~ g 7 2.W / ~ R $.! ~ | t 5.;.~ #.) ) u %   z.l.b.z.].}.  ",
"  ]._.z.l.z.z.    u 3.2.! v N ) u 8.2.) / Q ~ #.#...t q 2.^ Q ~ ......~ a 3 5.W ^ / *.$.) ! | u 2.;.~ #./ ) u %   l.z.c.z.].}.  ",
"  }.'.'.].].].  o w 6.2.~ x N ~ u 8.3./ ~ ~ / ~ ~ ..q q 2.Q ! ~ R *.*.! p 0 :.^ ! #...#.#.) ) u 2.;.~ O.....u %   ].'.].].].}.  ",
"  ].].z.n.z.z.    t 6.3.x $X,.c u q.2.) ~ / ~ ~ ~ ..w 0 2.! / ~ #...../ p 2 5.^ W ..} ..#.! @.u 2.;.~ #.R ..t %   b.z.z.z.`.}.  ",
"  ].].z.z.z.z.    s 6.3.x $XA c w 6.2.~ Q ~ ~ Q ~ ..q q 2.Q / ~ ......) g 2 :.^ ~ +.#.....~ ) u 2.;.Q ..) ) t %   z.z.z.z.].}.  ",
"  ].].d.z.z.z.  X u 6.3.{ z B ~ p 9.2./ ~ ~ ~ ~ ~ ..w q 2.^ ~ ~ Q / ~ [ i 7 5.W ! #.U { ..~ | t 2.;.Q ..~ ~ t @   z.z.z.z.].}.  ",
"  ].].d.z.c.z.  X u 6.7.! =.[ ! t 8.2./ Q ~ ~ ~ ~ ..q q 2.! ~ ~ ~ / ~ Q g 3 2...#...^ ) ..~ | u 2.;.! Q ^ ~ t %   c.c.z.z.].}.  ",
"  }.].'.].].].    u 6.2.~ ~ ~ ~ t 8.2.~ ~ ~ ~ / ~ ..w q 2.Q ^ ~ ~ ~ ~ ~ p 0 2.} #.Q Q ) $./ | t 2.;.Q ~ ~ ) t % X _.'.'.'.].}.  ",
"  }.].[.[.[.[.    u 6.2.~ ~ ~ ~ u 8.2.) / ~ ~ ~ ~ ..q q 2.! ~ ~ ~ ~ ~ ~ p 3 2.} #.~ ~ ! *.~ @.t 2.;.Q / ~ ~ u %   [.[.[.[.].}.  ",
"  ].].z.b.z.z.  X u 6.3.~ ~ ~ ~ u 8.2.) / ~ ~ Q U #.w q 2.) ~ ~ / ~ ~ ~ p 3 2...#.! U { #...>.t 2.;.~ Q ~ ~ u %   z.z.z.d.].}.  ",
"  ].].z.z.z.c.X   t 9.6.| | @.@.t q.8.=.| @.| &.&.| w r 6.| @.| | @.| | f 0 6.&.%.>.{ =.) %.>.u 6.0.| | | | t %   z.z.z.z.].}.  ",
"  ].].z.z.N.N.5 r 3 3 3 3 3 3 0 2 2 3 4 3 3 3 4 3 3 0 0 3 3 3 3 3 3 3 3 3 0 3 3 3 3 4 3 0 0 3 0 3 3 3 3 0 3 0 3 5 J.z.z.z.].}.  ",
"  ].}.g.g.b.t q.2.3.2.3.3.<.<.2.3.2.5.2.2.2.<.3.2.5.2.5.3.5.3.5.<.2.2.2.3.2.2.2.2.2.2.2.5.3.2.2.2.2.5.2.E 2.2.6.q.w N.g.g.].}.  ",
"  }.'.'.].'.u 6.2.~ ~ ) ~ &XXX/ ) ) ) ) / U #XT / / ~ ) ) ) ) ) #X%X~ / ) ) ) ) ) / &XOX~ ) ) ) ) ) ~ $X^ ~ ) ) | q '.].].'.}.  ",
"  }.'.z.z.M.q 6.5.) ) ) ) ! ! ) ! ) ) ) ) ~ ! ) ~ ~ ) ~ ~ ~ ~ ! ) ) ~ ~ ! ) ) ! ~ ~ ! ) ! ) ) ! ~ ) ! ! ~ ) ! ! =.t C.z.z.].}.  ",
"  ].].z.z.z.z.t y u u u u t t u t t t u u t w t u u u u w t t u u u u t t t u t p u u u u u t u t u u t t u u y t m.m.z.z.].}.  ",
"  ].].z.z.z.z.    q u t t u t t u u t u t u w t t t p t w t t t t u t w u p t u t u u t u t t w t t t t t t u O X l.M.c.z.].}.  ",
"  ].].c.m.M.z.    u 6.2.#... .~ t 8.5.) ~ ! *.^ ~ / t q 2.^ ^ ^ O.$.! ~ p 0 5.W ^ ..^ ~ #.~ ) w 3.;.~ ~ ~ ) t %   c.b.m.z.].}.  ",
"  }.].'.].].].  X w 6.2.~ X.+.~ u 8.2.) ~ ! ..^ ~ ~ t q 2.I  .} #.$...~ p 3 2.W ~ ..~ ) ..~ | t 2.;./ ~ ~ ~ t %   _.}.].]._.}.  ",
"  ].].z.c.z.c.  o u 6.2.) ..} / t 6.2.) ! ~ R ! / ) t q 2.^ } ..! ) *.~ d 2 5.W ~ ! #.$.#.~ | t 2.;.~ ~ ~ ~ u %   c.b.z.z.`.|.  ",
"  ].].z.z.z.z.  X u 6.2.) #.....t q.5./ O.*.^ ~ ~ ~ t q 2.Q } ..) ) ..~ g 3 5.^ ~ ~ #.+.~ ~ | u 2.;.^ / ~ ~ u %   z.z.z.z.].}.  ",
"  }.].z.z.z.z.  X u 5.3.~ Q | R t 8.3./ +.*.~ ~ / ~ t q 2.......~ ) ..*.g 0 5.W ~ ~ ! ) ~ ~ ) u 2.;.Q / ~ ~ u %   z.z.z.z.].}.  ",
"X }.].z.m.c.z.  o w 6.6.~ ! ~ ~ t q.2...) ~ ) ~ Q / t q 3...{ ~ { ^ ^ X.a 0 2.W ~ ~ ~ ~ ~ ~ | t 2.;.Q Q ~ U t O   Z.b.c.z.].}.  ",
"=X.                 t t w t q t   u q w w t t t t t     w q t t t q u w .   q q q t t w t t i   u w t t q t   .             . =X"
};
