/* XPM */
static char *result[] = {
/* columns rows colors chars-per-pixel */
"64 64 136 2 ",
"   c #3C393A",
".  c #3F3B3B",
"X  c #403C3E",
"o  c #423E40",
"O  c #434140",
"+  c #444142",
"@  c #474543",
"#  c #494746",
"$  c #4B4847",
"%  c #4B484A",
"&  c #4C4A49",
"*  c #4F4D4C",
"=  c #504E4E",
"-  c #514F4E",
";  c #53514F",
":  c #535051",
">  c #545252",
",  c #565352",
"<  c #575553",
"1  c #585654",
"2  c #585756",
"3  c #5B5957",
"4  c #595658",
"5  c #5B5A5A",
"6  c #5C5A59",
"7  c #5D5A59",
"8  c #5E5C5A",
"9  c #5E5C5C",
"0  c #5F5E5C",
"q  c #615F5D",
"w  c #615E5F",
"e  c #63615F",
"r  c #64625F",
"t  c #646261",
"y  c #656261",
"u  c #646362",
"i  c #666463",
"p  c #676564",
"a  c #686664",
"s  c #6A6766",
"d  c #6B6966",
"f  c #6A6867",
"g  c #6B6868",
"h  c #6C6969",
"j  c #6E6C6B",
"k  c #6F6C6C",
"l  c #6F6F6D",
"z  c #706E6B",
"x  c #716F6E",
"c  c #72706F",
"v  c #74716F",
"b  c #737170",
"n  c #737372",
"m  c #747271",
"M  c #757473",
"N  c #777573",
"B  c #777675",
"V  c #787675",
"C  c #777877",
"Z  c #797877",
"A  c #7B7A77",
"S  c #7B7A78",
"D  c #7B7B79",
"F  c #7C7B7A",
"G  c #7D7C7B",
"H  c #7F7E7D",
"J  c #807F7C",
"K  c #817F7E",
"L  c #7E807D",
"P  c #81817E",
"I  c #81807F",
"U  c #83827F",
"Y  c #838281",
"T  c #838382",
"R  c #848381",
"E  c #858383",
"W  c #858483",
"Q  c #868584",
"!  c #888784",
"~  c #888786",
"^  c #898885",
"/  c #898887",
"(  c #8A8A87",
")  c #8A8988",
"_  c #8C8B8A",
"`  c #8D8C89",
"'  c #8E8D8B",
"]  c #8F8D8D",
"[  c #8F8E8C",
"{  c #908E8D",
"}  c #908F8F",
"|  c #91908D",
" . c #92918F",
".. c #93938F",
"X. c #939290",
"o. c #949393",
"O. c #959492",
"+. c #979693",
"@. c #969594",
"#. c #989796",
"$. c #989895",
"%. c #999897",
"&. c #9A9996",
"*. c #9B9B98",
"=. c #9B9A99",
"-. c #9C9B9A",
";. c #9B9C99",
":. c #9D9C99",
">. c #9F9E9D",
",. c #A09F9E",
"<. c #A0A09D",
"1. c #A2A19E",
"2. c #A2A1A0",
"3. c #A4A2A1",
"4. c #A4A4A1",
"5. c #A6A5A3",
"6. c #A7A7A4",
"7. c #A8A8A6",
"8. c #AAABA8",
"9. c #ABACA9",
"0. c #AEAEAB",
"q. c #AFAFAD",
"w. c #AFB1AE",
"e. c #B1B3AF",
"r. c #B2B3B1",
"t. c #B5B6B3",
"y. c #B6B8B5",
"u. c #B9BBB7",
"i. c #BBBDBA",
"p. c #BEC0BC",
"a. c #C0C2BF",
"s. c #C3C5C2",
"d. c #C8C9C6",
"f. c #CBCDCA",
"g. c #D2D4D1",
"h. c None",
/* pixels */
"Q / O.{ M G K ] Z Z S Y ] Q ' =.%.] ) )  .>.:.=.O.H / W 7.8.7.8.7.1.5.' Q G K I W ,.%./ / W Y M M M m F I Q V Y _ ) I W _ Q M H ",
"G M _ Q V F W Y x ~ I H Z F ' O.8.@.W I O.%.%.:. .S W =.1.7.2.4.7.1.7.=.Z I c M W O.' Q I ~ H H F M k M W Y F H H ) ) ' O.' G H ",
"x F  .Q ~ I H U B U I W R O./ Y 5.5.@.O.%.] / 5.' Q O.:.0.9.%.%.:.5.,.%.Q m b I H U Q I N F ~ Y Y S h m / H S B F / W W >.' ' S ",
"c Y @.%.' ' Y I A G ` W Y ' { ] 2.%.' @.:.2.5.%.~ / H :.q.1.%.:.O.8.:..._ W %.Q O./ _ Q Z Z x ~ W R M K R F G Q H Q I G  .%.] I ",
"@.O.) 7./ ' ^ Y I Z /  .S H O.%.=.%.I  .%.%.0.%.Q / Y ..>. .:. .>.>.7.' ) ] =. .%.' ..Q G c Z M M Q o.B B H H Y F F B M / / G Z ",
"8.:./ %.W ~  ./ K H f I Z I =.<.@.W M O.G K @./ O. . .] %. ...Y O. .7.O.O.O.1.:. ...5.;./ H M / W I Q H G Y F Q Y H m I ` ~ } F ",
"%.Q H B [ / ) U I M s M r b @.%. .A h O.k M Y ' / %.%.^ U ~ } { :...1.%.W | %.O.%.%.:.:._ B H S / Y M ^ Q I m G H F M H ' H W X.",
"S U Y Z / _ ( $.G f Z M f i ~ O.Z M t Q Z Z / Y X.{  .A / / ~ } ..%.=.O.~ U A / -. .O.@.Y M c c M I m I Y R h G Y F M M W Y / O.",
"H Z I  .^ Y =.} / M m _ Z b x 3 k w k I Q B Q O.@.' ' D / / / ' %.~  .%. .G A ^ { Q W ' W m F B M V M F Z / / / G K G M V f S Y ",
") G I O.G G O.' / B H H / D w 1 i > p Y Y H / ' 1.%.O.Z ^ O.' O.+.{ ) { W I ` W I Y W O./ S m Z B M W R G Y W F x G Z m G j x M ",
"R / Y / Z M / ' { c M m F m j 3 D ; k B Q Y ' ..1.%.O.' I ..O.&.@.+.] +.O.~ / Y G K G H I S H M H c c M M B M M w c H P f x b M ",
"I Y Y S j c Y Y / H S Z S S B i t p f Y W R %.~ :.:...W W +.+.,...` [ { ^ { / G Y I M Y m B ) H M k M i M Z i Z x / ' U S m d c ",
"{ W x f i x B M v Q V x A c f b M m Z  .^ / &.O.%.+.../ Q O.:.5.1.7... .W W / Z / V c M M W R K Y h M Z W Y K S V M M ) V B f S ",
"I Y i j i i S m Z / x c G Z B f i i B ) S ! =.%.$. .' Y Y { 4.7.2.%.{ I I G O.Q  .O.W M Z B Z M G W R Y W W / Z M < c Y / Z j M ",
"G G f f r g c j P W B B / $.Y u m v W { / Q | &.O.' / Q  .%.7.<.' ../ B m Z S / Y ) G Z Z b Z x x G S { ~ } Y S m 3 Z R Y M i j ",
"9 x M 8 m i M c I ..G Y / ' G M k M Q @.O.' %.' %.Z D Z :.2.:.%.{ G  .Q V M K Z V R M M H H F x h M K G / Y H z j y c Q I M f U ",
"7 3 f C p r i > I W W ..%.~ f j B G / O.' ~  .=.} ~ G R ' %.7. .Q G F M F x Z m c g g W K m j m j s M Z I Q m j i y U W ' c M ] ",
"< 7 i D c < h f | 1./ ` ' I e f / Y ..=. .W / 1._ ^ / Z Y ) O./ Z F I F j f i x x G G H Z V h m k 8 y x M S Z M S Z M F L c G Z ",
"w 9 i D i 3 f w %.7. . .W ' x b R O.o.@.W W ..9.P H W Z G ` C G R B Z Q Z i ; t I K G x r t e b c t x c H G K H S M m K H F S Y ",
"i 3 b I c 3 3 G %.7.1.%.,.*.Q B ) %.~ Q ) ..%.{ R I W V j I ` G W R M H S F r c M ^ Z c < h < h c j I A ~ I I I Z f j S Z S V / ",
"D e i r H i 8 M  .q.q. .%.1.W S / Q Q c R  .%.U ' I H P h M G B M V c F I j Z x b I Q m 8 j c Z Z I G H Z N ~ W H x G Z m Z M K ",
"H i f j B f f b :.7.1.` { 8.| Y Y W  .M Z  .' 1.X._ V M j B M I W U Z S f h M B f / / c k j B c Z G ~ G S Q Y Q Q Z Z M M k i Z ",
"G / M f V j M m _ { ' ( ..%.7.' W W ] / G  .1.1.%.^ G H x Z V S Q I B x B a h M M Z I Y c S I Y I W B H K ' O.%.%.Z j m m b m Y ",
"Q 1.V t c Z j c H ) _ W U ' 5.1.*.%.%.%.O.@.5.5./ G M A x c M I A ^ c g M M i m V m Z M c c _ F W / b x Q =.5.5.;.{ G g M m S H ",
"%.Q B f r Z M t V W Y Z P  .%.%.%.&.=.5.1.1.1.4.@.' G h d m j I M x B z c c i f G M c g k G I W ^ / M F @.5.%.1.w.#.W m Y M Z B ",
"I Q M F B c M m m / i h M _ %.] ..Q %.1.7.1.:.5.>.@.Y M x M V M V Y M Z x 9 i t j Z f x G ` { =.! S S W >.7.:.2.7.' I H / U P I ",
" .Q V h c h c k V E j c Z  .` 2.5.o.O.=.5.5.$.w...W A v h m x R V S Z h p 6 < e m c j i G W {  .W M s G Q O.=.%.:. .Z I | ..O.W ",
"W I Z x x A ~ v s U p i I I Z >.e.<.W 1.;.e.%.r.5.W M h m h V S G G m j t 7 3 9 x Z s 2 h G ~ W A i t X.O.%.%.%.O.W I ) _ ^ o.V ",
"' Z c h j C O.V v M v x / ) ) { :.:.:.7.1.w.e.i.q.U V i e c m m p x s j i t e p j s 8 1 k I G G M j x / :.;.7.*.! Z W ' W %...B ",
"o.G  .V x x K c c ~ ' G W ^ V  .=.=...1.%.e.2.e...I Z s p x M s g f c c u g t i i t e 3 e I Y M s n Z I :.1.:.O.W Z V G W %.W R ",
"O.#.' Z m h k k M j Z W / W M 5.5.o.1.5.9.;.7.<. .I v K g m M h i 1 g 8 q t 7 f 8 i < $ > x Y Z V m Z / :.=.=.=.V Z j ~ ' =.) / ",
"W I o.O./ G M u V G I Z ] 5.~ ..5.%.5.9.e.r.1.:.#.' G G I k k x t 8 k e f 1 s 7 q g ; 1 < e W I Z W Q / %.=...W _ x m / -.O.o.{ ",
"/ M ' :.2.| M S R G G Q %.=.%.%.:.O.1.w.e.w.3.^ / Q ] / G m c x x k j p 3 2 t 6 8 7 # - < e I A I  .' } %./ Q ' Z G V Z ) / @. .",
"m Q 5.e.%.$.P W W M K W ,.O.1.e.%.1.5.e.5.w.1.W W ' Y ' M m j h t k j t 9 < 3 3 e ; ; * # < f j v ~ W  .W O.W W f f S j Q ) ' / ",
"s ` =.7.X.%.W ~ n I l G ,.O.5.5.%.] 1.u.%.5. .I G Z Q Z Z H g f x Z j a 8 < > < 7 3 + @ $ - 1 t M / O.W H X.W R f c Z Z W ) :.h.",
"M O.6.%.<.8.I Z f x I W )  .1.w.7.8.9.t.o.%.X.V c I *.P A M M s Z x y f 1 < , 1 3 & @ & $ $ $ 8 c c v K v ) ) ) G I k v V ! W h.",
"~ =.7.<.1. .W Z V Y _ :.H W O.w.p.u.y.t.' %.O.Z v K 1.%.^ c V x b f e w 6 < > - 1 + X # # X - : e x Z m p M v K V Q K M Z Z I h.",
"1.%.$.7.%. .W W I W / :.H O.@.5.e.t.t.:.=.6.6.%.X.'  .O.I v K b c t 9 6 p 1 6 p > + @ $ + # < e p k c y t c S j M W W U v x W h.",
"..1. . . .O.Z ..V ..O.+. .W =.7.7.t.1.w.9.t.w.1.5.%.| ..Z G I K b e 7 * * # * e w 6 & $ + $ * e e f j i s i j p c R Z Z x p v h.",
"W ..7.| O.o.I O.W { 3.I S Z _ 5.>.*.1.u.s.w.5.:.5.0.+./ Q G I K j i e 1 > @ $ < 1 1 $ ; @ > # y 6 e 6 t e i w y p c c G Z Z f h.",
"Z / %.:.4. .K .. .` <. .Z  .=.5.1.] e.s.s.w.7.e.r.t.<.Y I ..^ R Z j e 8 # @ # < 9 : 6 $ # X # 3 e 9 < k t f 9 w k v c I v x e h.",
"p W  .>.w.5.O.W I W Q U  .<.1.t.u.r.y.i.s.u.y.w.t.w.1.I Q =.! / M y 7 q - # # + 6 * > * + + + - 8 * < p h t t e 8 i p h f x 7 h.",
"R W O.%.w.r.%.X.G W T J W >.' @.2.5.7.r.p.p.r.r.1.9.#.^ G :.R W M c 5 # 3 $ # # ; : @ & # . + - 7 * & * i e 8 e 8 e j 7 i e 9 h.",
"L W :.^ 7.u.1.%.O.W  .:.@.=.%.] %.O.7.y.s.u.u.0.r.5.o.W Q O.W P m s s p t 8 - # * 1 * = O & # 2 8 * < 1 q h i l Y V j s 1 7 8 h.",
"G W ,.5.*.e.q.e.q.5.e.7.%.5.<.O.X.7.w.u.y.s.y.1.=.%.^ A  .$.A N c f * > 6 < # & & 3 # + O X * = $ - ; ; p f f x x E h i > 7 3 h.",
"M ' <.7. .t.t.w.s.0.r.w.e.q.i.o.o.@.;.e.q.5.w.7.1.#. .W Q =.H M c t > < t 3 3 # X * @ o o # + ; 1 3 ; 1 h x M x p e e e 2 u c h.",
"H W 2.:.6.s.u.t.s.u.6.5.u.y.y.4.w.2.;.2.u.r.8.t.5...K W W W W M h 9 3 8 3 $ # o + & * + + + @ # * 1 8 9 i i 9 i f i s i p Z I h.",
"O.1.5.5.1.y.t.t.u.y.5.<.s.y.t.w.t.w.2.1.w.u.9.r.7.O.*.O.P R / M f 8 i p 8 & X $ X @ < # # * $ @ & - f c 8 j 3 8 e j f G W Q G h.",
"#.:.7.1.4.7.e.w.i.t.w.<.s.d.u.s.u.y.s.w.s.p.r.w.i.e.%. .^ W R W k 3 e i : # = & O X 1 > > ; $ $ ; 2 t b f m i p p M G I G j M h.",
"=.5.5.9.7.9.7.5.u.y.u.y.e.s.u.a.d.s.d.s.s.r.y.s.s.y.5.:.O.W W W j 8 8 e < # # - o # < * i # * @ ; 1 f t k ; ; 9 8 c c I R d c h.",
"/ 7.%.5.0.w.9.5.u.s.u.t.w.s.i.f.f.s.s.d.s.u.y.s.y.u.w.*.O.W K Z Z s t 7 2 8 $ < + % - # * ; $ + & 8 6 8 5 + * 3 & 7 x Z c t i h.",
"/ w.7.w.w.7.%.7.<.s.s.u.y.u.s.f.s.u.s.s.g.p.u.w.w.u.u.1.I G Z Y W / I i h h $ $ X + $ $ < * $ + + * > w 3 # + ; + 3 t V d 7 8 h.",
",.O.1.s.u.e.w.e.7.7.p.r.w.5.5.5.e.9.u.s.s.s.u.w.w.e.s.1.W U  .I / G W x e 3 > # # $ $ & > < $ + $ < < e - ; > < - 9 M c e x : 9 ",
"o.4.1.t.u.d.u.i.5.5.e.r.1. .5.%.5.0.e.y.s.u.u.y.w.w.r.1. .` =.%.@.| v M e q * > < & X # ; & * @ & * > 3 f $ < $ - 1 c e i w 6 s ",
",.%.1.5.t.t.e.i.0.e.u.y.<...' / o.5.e.r.p.s.u.t.w.e.t.5.o...-.2.:.| c f i 3 > 8 7 > $ $ > < * + ; $ < 3 8 < 1 < * e x M 3 < 0 d ",
"W ..O.%.5.7.w.1.w.q.t.w.7.W Y O.O.%.4.w.y.u.i.e.5.1.e.u.5.<.7.*.O.W b v h 3 $ * 1 4 ; 1 * 1 * @ * $ < 6 j i V 8 8 M M c 3 i 9 h.",
"W -.:.^ =.] 1.5.u.p.y.t.9.W ~ o.%.@.7.w.u.y.w.t.8.5.e.r.7.6.1.:.' K M h e : $ 6 8 < 3 < > < 7 * # < : 8 f V G z i v K f t i g h.",
"~ :.W i I / O.=.i.u.w.7.:.R W Q O.O.%.O.u.y.7.%.<.5.w.7.9.5.5.5. .' Z f 1 * 8 9 3 6 > < 7 i p # O # $ 3 p m V m s I l x j M e h.",
"%./ e 8 9 k W X.5.w.5.O.P / A A /  .@. .<.<.5.@.+.:.,.7.w.7.w.7.W O.J j 9 * 6 6 < > w > < 7 9 ; o   o < g Z j p V G I g j M 9 h ",
" .{ 1 f t e I ..X.<. .` v x f M W _ .. .:.o. .W V W | ..' 1.7. ./ H v 8 e - - 1 t 6 u p 3 6 ; # & o * ; x E v c M j V k Z f p g ",
"Y c V M j 3 e W O.O...U p B j u p c o.@.W W P V j i c I W ..9.7.o.~ V t 9 1 u s p e k 9 ; 7 & @ + + 9 w j c t e j e c j 8 u 8 < ",
"i 8 e h c e H ../ O.O.W c M y 8 u j  .` W { v M j m x / I @.5.<.%.P m c t e e 2 8 i k s < ; < * + ; ; i p e e t h t x Z t k e t ",
"< < i w x k M O.:.K O._ K j f g u p M W M W v x f h c c G H ..o.+.D D s i t > e * t u 8 e > < & + < * 8 e 6 < - x e Z i 8 g j 8 ",
"O # 7 h c Z 2.e.5.A Q W X.B e 8 i i Z -.V c x Z v h i i v H G W G W s i p k u e * t k k 9 > & $ + @ t 8 8 3 8 < e h R f n h t Z "
};
