/* XPM */
static char *result[] = {
/* columns rows colors chars-per-pixel */
"64 64 4 1 ",
"  c black",
". c #222648",
"X c #7F807F",
"o c None",
/* pixels */
"oooooooooooooooooooooooooooooooooooooooooooooooooooooooooooooooo",
"oooooooooooooooooooooooooooooooooooooooooooooooooooooooooooooooo",
"oooooooooooooooooooooooooooooooooooooooooooooooooooooooooooooooo",
"oooooooooooooooooooooooooooooooooooooooooooooooooooooooooooooooo",
"oooooooooooooooooooooooooooooooooooooooooooooooooooooooooooooooo",
"oooooooooooooXXXXXXXXXXoXXXXXXooooXXXXXXoXXXXXXXXXXooooooooooooo",
"ooooooooooXXXXX  X    XXX    XXXXXX    XXX    X  XXXXXoooooooooo",
"oooooooXXXX    X         XXXX  XX  XXXX         X    XXXXooooooo",
"ooooooXX X    X X XXXX    X XX XX XX X    XXXX X X    X XXoooooo",
"oooooXX            X                        X            XXooooo",
"oooooX     X      X         X      X         X      X     Xooooo",
"oooooX     X                                        X     Xooooo",
"oooooXX       X   XX                        XX   X       XXooooo",
"ooooooX       X         .              .         X       Xoooooo",
"oooooXX  X     . .                            . .     X  XXooooo",
"oooooX                         ..                         Xooooo",
"oooooXX       .          . .   ..   . .          .       XXooooo",
"ooooXXX                     ..    ..                     XXXoooo",
"ooooX    X                  .      .                  X    Xoooo",
"ooooX          .             .    .             .          Xoooo",
"ooooX                                                      Xoooo",
"ooooXX                      .      .                      XXoooo",
"ooooX         .                                  .         Xoooo",
"ooooX        .                .  .                .        Xoooo",
"oooXX         .                                  .         XXooo",
"oooX X                       . .. .                       X Xooo",
"oooX        .                 ....                 .        Xooo",
"oooX         ..                ..                ..         Xooo",
"oooX X      .    .             ..             .    .      X Xooo",
"oooX X    .  .      .                      .      .  .    X Xooo",
"oooX  X  .                                            .  X  Xooo",
"oooX    X.  ...       .....          .....       ...  .X    Xooo",
"oooX    X.  ...       .....          .....       ...  .X    Xooo",
"oooX  X  .                                            .  X  Xooo",
"oooX X    .  .      .                      .      .  .    X Xooo",
"oooX X      .    .             ..             .    .      X Xooo",
"oooX         ..                ..                ..         Xooo",
"oooX        .                 ....                 .        Xooo",
"oooX X                       . .. .                       X Xooo",
"oooXX         .                                  .         XXooo",
"ooooX        .                .  .                .        Xoooo",
"ooooX         .                                  .         Xoooo",
"ooooXX                      .      .                      XXoooo",
"ooooX                                                      Xoooo",
"ooooX          .             .    .             .          Xoooo",
"ooooX    X                  .      .                  X    Xoooo",
"ooooXXX                     ..    ..                     XXXoooo",
"oooooXX       .          . .   ..   . .          .       XXooooo",
"oooooX                         ..                         Xooooo",
"oooooXX  X     . .                            . .     X  XXooooo",
"ooooooX       X         .              .         X       Xoooooo",
"oooooXX       X   XX                        XX   X       XXooooo",
"oooooX     X                                        X     Xooooo",
"oooooX     X      X         X      X         X      X     Xooooo",
"oooooXX            X                        X            XXooooo",
"ooooooXX X    X X XXXX    X XX XX XX X    XXXX X X    X XXoooooo",
"oooooooXXXX    X         XXXX  XX  XXXX         X    XXXXooooooo",
"ooooooooooXXXXX  X    XXX    XXXXXX    XXX    X  XXXXXoooooooooo",
"oooooooooooooXXXXXXXXXXoXXXXXXooooXXXXXXoXXXXXXXXXXooooooooooooo",
"oooooooooooooooooooooooooooooooooooooooooooooooooooooooooooooooo",
"oooooooooooooooooooooooooooooooooooooooooooooooooooooooooooooooo",
"oooooooooooooooooooooooooooooooooooooooooooooooooooooooooooooooo",
"oooooooooooooooooooooooooooooooooooooooooooooooooooooooooooooooo",
"oooooooooooooooooooooooooooooooooooooooooooooooooooooooooooooooo"
};
