/* XPM */
static char *result[] = {
/* columns rows colors chars-per-pixel */
"64 64 103 2 ",
"   c black",
".  c #030100",
"X  c #020002",
"o  c #030103",
"O  c #050300",
"+  c #070103",
"@  c #010304",
"#  c #050105",
"$  c #070305",
"%  c #060207",
"&  c #020607",
"*  c gray2",
"=  c #060407",
"-  c #050707",
";  c #080400",
":  c #080806",
">  c #020608",
",  c #0D0509",
"<  c #02080A",
"1  c #090B0B",
"2  c #0C090D",
"3  c #371D00",
"4  c #381E00",
"5  c #350D3D",
"6  c #370D3E",
"7  c #370D3F",
"8  c #572E00",
"9  c #5A2F00",
"0  c #5A3000",
"q  c #5C3000",
"w  c #5C3100",
"e  c #5D3100",
"r  c #5F3200",
"t  c #613300",
"y  c #380D40",
"u  c #5A1666",
"i  c #5C1768",
"p  c #5D1769",
"a  c #5E176A",
"s  c #5F176B",
"d  c #60186C",
"f  c #954F00",
"g  c #975000",
"h  c #9A5200",
"j  c #9C5300",
"k  c #9E5103",
"l  c #9D5502",
"z  c #9F5305",
"x  c #DB1C5D",
"c  c #E21D60",
"v  c #E21F61",
"b  c #E91E63",
"n  c #E62060",
"m  c #E72162",
"M  c #E92064",
"N  c #B9854B",
"B  c #BA874D",
"V  c #BB844E",
"C  c #BC864F",
"Z  c #246D8C",
"A  c #2B728E",
"S  c #257191",
"D  c #267394",
"F  c #2C7593",
"G  c #2C7796",
"H  c #9525A8",
"J  c #9726AA",
"K  c #9A26AE",
"L  c #9C27B0",
"P  c #9D27B1",
"I  c #992BB2",
"U  c #992CB2",
"Y  c #E75C8C",
"T  c #E75E8D",
"R  c #EF5F90",
"E  c #EC618D",
"W  c #ED6290",
"Q  c #EF6192",
"!  c #BA32D2",
"~  c #BD33D5",
"^  c #BE33D6",
"/  c #BF34D8",
"(  c #C034D9",
")  c #3BB0E3",
"_  c #3DB6EA",
"`  c #3EBAEF",
"'  c #3FBCF2",
"]  c #45B3EE",
"[  c #42B7F0",
"{  c #45BEF1",
"}  c gray60",
"|  c gray62",
" . c #EFEBC3",
".. c #F7F2C9",
"X. c #F7F2CA",
"o. c #F2F4CF",
"O. c #F8F6CE",
"+. c #F9F8D1",
"@. c #FFFAD0",
"#. c #FEFAD1",
"$. c #DBFCFF",
"%. c #DCFCFD",
"&. c None",
/* pixels */
"&.&.&.&.&.&.&.&.&.&.&.&.&.&.&.&.&.&.&.&.&.&.&.&.&.&.&.&.&.&.&.&.&.&.&.&.&.&.&.&.&.&.&.&.&.&.&.&.&.&.&.&.&.&.&.&.&.&.&.&.&.&.&.&.",
"&.&.&.&.&.&.&.&.&.&.&.&.&.&.&.&.&.&.&.&.&.&.&.&.&.&.&.&.&.&.&.&.&.&.&.&.&.&.&.&.&.&.&.&.&.&.&.&.&.&.&.&.&.&.&.&.&.&.&.&.&.&.&.&.",
"&.&.&.&.&.&.&.&.&.&.&.&.&.&.&.&.&.&.&.&.&.&.&.&.&.&.&.&.&.&.&.&.&.&.&.&.&.&.&.&.&.&.&.&.&.&.&.&.&.&.&.&.&.&.&.&.&.&.&.&.&.&.&.&.",
"&.&.&.&.&.&.&.&.&.&.&.&.&.&.&.&.&.&.&.&.&.&.&.&.&.&.&.&.&.&.&.&.&.&.&.&.&.&.&.&.&.&.&.&.&.&.&.&.&.&.&.&.&.&.&.&.&.&.&.&.&.&.&.&.",
"&.&.&.&.&.&.&.&.&.&.&.&.&.&.&.&.&.&.&.&.&.&.&.&.&.&.&.&.&.&.&.&.&.&.&.&.&.&.&.&.&.&.&.&.&.&.&.&.&.&.&.&.&.&.&.&.&.&.&.&.&.&.&.&.",
"&.&.&.&.&.&.&.&.&.&.&.&.&.&.&.&.&.&.&.&.&.&.&.&.&.&.&.&.&.&.&.&.&.&.&.&.&.&.&.&.&.&.&.&.&.&.&.&.&.&.&.&.&.&.&.&.&.&.&.&.&.&.&.&.",
"&.&.&.&.&.&.&.&.&.&.&.&.&.&.&.&.&.&.&.&.&.&.&.&.&.&.&.&.&.&.&.&.&.&.&.&.&.&.&.&.&.&.&.&.&.&.&.&.&.&.&.&.&.&.&.&.&.&.&.&.&.&.&.&.",
"&.&.&.&.&.&.&.&.&.&.&.&.&.&.&.&.&.&.&.&.&.&.&.&.&.&.&.&.&.&.&.&.&.&.&.&.&.&.&.&.&.&.&.&.&.&.&.&.&.&.&.&.&.&.&.&.&.&.&.&.&.&.&.&.",
"&.&.&.&.&.&.&.&.&.&.&.&.&.&.&.&.&.&.&.&.&.&.&.&.&.&.&.&.&.&.&.&.&.&.&.&.&.&.&.&.&.&.&.&.&.&.&.&.&.&.&.&.&.&.&.&.&.&.&.&.&.&.&.&.",
"&.&.&.&.&.&.&.&.&.&.&.&.&.&.&.&.&.&.&.&.&.&.&.&.&.&.&.&.&.&.&.&.&.&.&.&.&.&.&.&.&.&.&.&.&.&.&.&.&.&.&.&.&.&.&.&.&.&.&.&.&.&.&.&.",
"&.&.&.&.&.&.&.&.&.&.&.&.=       &.&.&.&.&.&.&.&.&.&.        &.&.&.&.        &.&.&.&.&.&.&.&.&.&.      = &.&.&.&.&.&.&.&.&.&.&.&.",
"&.&.&.&.&.&.&.&.&.&.&.&., + $ $ &.&.&.&.&.&.&.&.&.&.+ + $ $ &.&.&.&.$ $ + + &.&.&.&.&.&.&.&.&.&.$ $ + , &.&.&.&.&.&.&.&.&.&.&.&.",
"&.&.&.&.&.&.&.&.= = = , x c T T = = = = = = = = = = c v Y T = = = = T Y v c = = = = = = = = = = T T c x , = = = &.&.&.&.&.&.&.&.",
"&.&.&.&.&.&.&.&.      + c b Q Q                     b M R Q         Q R M b                     Q Q b c +       &.&.&.&.&.&.&.&.",
"&.&.&.&.&.&.        B V m b b b B B B C W Q b b B B b b b b j j j j b b b b j j b b Q E z j j j b b b n k j     &.&.&.&.&.&.&.&.",
"&.&.&.&.&.&.        B V m b b b B B B C W Q b b B B b b b b j j j j b b b b j j b b Q E z j j j b b b n k j     &.&.&.&.&.&.&.&.",
"&.&.&.&.&.&.    B B j g O       j j j k n b b b j j         j j j j         j j b b b n k j j j       O g j         &.&.&.&.&.&.",
"&.&.&.&.&.&.    B B j g O       j j j k n b b b j j         j j j j         j j b b b n k j j j       O g j         &.&.&.&.&.&.",
"&.&.&.&.&.&.    B B j h r e e e j j j g O       j j e e e e j j j j e e e e j j       O g j j j e e e r h j j j     &.&.&.&.&.&.",
"&.&.&.&.&.&.    N N j h t r r r j j j g ; . . . j j 9 9 9 9 g g g g 9 0 r r j j . . . ; g j j j r r r t h j j j     &.&.&.&.&.&.",
"&.&.&.&.&.&.    l l j j h h h h j j j h w 9 9 9 j j . . . . O O O O . ; f h j j 9 9 9 w h j j j h h h h j j j j     &.&.&.&.&.&.",
"&.&.&.&.&.&.    j j j j j j j j j j j h r e e e j j                   O g j j j e e e r h j j j j j j j j j j j     &.&.&.&.&.&.",
"&.&.&.&.&.&.    e e e e e e e e e e e e e e e e e e   * } | | | | |   . 9 e e e e e e e e e e e e e 3 4 q e e e     &.&.&.&.&.&.",
"&.&.&.&.&.&.    e e e e e e e e e e e e e e e e e e   * } | | | | |   . 9 e e e e e e e e e e e e e 3 4 q e e e     &.&.&.&.&.&.",
"&.&.&.&.&.&.    @.@.        @.@.S S @.O.F S     @.@.        @.@.    @...:           @.O.F S S S @.@.S Z @   @.@.    &.&.&.&.&.&.",
"&.&.&.&.&.&.    @.@.        @.@.S S @.O.F S     @.@.        @.@.    @...:           @.O.F S S S @.@.S Z @   @.@.    &.&.&.&.&.&.",
"&.&.&.&.&.&.    @.@.        @.@.    ' _ >       @.@.                @...:                       @.@.        @.@.    &.&.&.&.&.&.",
"&.&.&.&.&.&.    +.+.        ....    _ ) &       ....                .. .:                       #.#.        ....    &.&.&.&.&.&.",
"&.&.&.&.&.&.    { {         : :     > &         : :                 : :                         %.%.        : :     &.&.&.&.&.&.",
"&.&.&.&.&.&.    ' '                                                                             $.$.                &.&.&.&.&.&.",
"&.&.&.&.&.&.                                                7 7 7 7 7 7 7 7 7 7 7 7                         S S     &.&.&.&.&.&.",
"&.&.&.&.&.&.                                                7 7 7 7 7 7 7 7 7 7 7 7                         S S     &.&.&.&.&.&.",
"&.&.&.&.&.&.                    @.@.            7 7 7 7 7 7 p p p p p p p p p p p p 7 5 X                           &.&.&.&.&.&.",
"&.&.&.&.&.&.                    @.@.            7 7 7 7 7 7 p p p p p p p p p p p p 7 5 X                           &.&.&.&.&.&.",
"&.&.&.&.&.&.        @.O.F S     @.@.  : ..@.p p p p p p p p p p p p p p p p p p p p p i y 7 7 7 @.@.  : ..@.        &.&.&.&.&.&.",
"&.&.&.&.&.&.    > > +.o.G D > > ....  :  ...d d s s s s s s s s d d s s s s s s s s s a 6 5 5 5 @.@.@ 1 X.@.@ @     &.&.&.&.&.&.",
"&.&.&.&.2 =     _ _ { { ` ` _ _ : :     : : ~ ~ K K K K K K K K ~ ~ K K K K K K K K K H % X X X @.@.Z A O.@.Z Z     = 2 &.&.&.&.",
"&.&.&.&.=       ' ' ' ' ' ' ' '             ( ( L L L L L L L L ( ( L L L L L L L L L J #       @.@.S F O.@.S S       = &.&.&.&.",
"&.&.&.&.=       ' '   > _ '     e e         ( ( L L L L L L L L L L L L L L L L L L p u o   ' ' ' ' ' ' ' '     e e   = &.&.&.&.",
"&.&.&.&.=       ' '   > _ '     e e         ( ( L L L L L L L L L L L L L L L L L L p u o   ' ' ' ' ' ' ' '     e e   = &.&.&.&.",
"&.&.&.&.=   e e     e 9 .   e e e e   % ! ( L L L L L P / ( L L L L L L L L L L L L                 ' ' ' '     j j   = &.&.&.&.",
"&.&.&.&.=   e e     e 9 .   e e e e   % ! ( L L L L L P / ( L L L L L L L L L L L L                 ' ' ' '     j j   = &.&.&.&.",
"&.&.&.&.=   j j j j j j j j j j j j   % ! ( L L L L ( / P L L L L L L L L L L L L L         e e e e   > _ '     j j   = &.&.&.&.",
"&.&.&.&.=   j j j j j j j j j j j j   % ! ( L L L L / ^ P L L L L L L L L L L L U U     . . r r r r . - ) _ . . j j   = &.&.&.&.",
"&.&.&.&.=   j j j j j j j j j j j j   % ! ( L L L L P P L L L L L L L L L L L L [ [   . 8 9 h h h h 9 8 - > 9 9 j j   = &.&.&.&.",
"&.&.&.&.=   j j j j j j j j j j j j   % ! ( L L L L L L L L L L L L L L L L L L ' '   . 9 e j j j j e 9 .   e e j j   = &.&.&.&.",
"&.&.&.&.=   j j j j j j j j j j j j   # J L L L L L L L L L L L L L L K s p p p       O g j j j j j j j j j j j e e   = &.&.&.&.",
"&.&.&.&.=   j j j j j j j j j j j j   # J L L L L L L L L L L L L L L K s p p p       O g j j j j j j j j j j j e e   = &.&.&.&.",
"&.&.&.&.=   j j j j j j j j j j j j   # J L L L ( ( L L L L L L p p ' _ >           e r h j j j j j j j j j j j e e   = &.&.&.&.",
"&.&.&.&.=   j j j j j j j j j j j j   # J L L L ( ( L L L L L L p p ' _ >           e r h j j j j j j j j j j j e e   = &.&.&.&.",
"&.&.&.&.=   j j j j j j j j j j     ( / P L ( ( L L L L L L p p             e e e e j j j j j j j j j j j j j j e e   = &.&.&.&.",
"&.&.&.&.2 = g g j j j j j j j j     / ^ P L / / L L L L I U u u     . . . . r r r r j j j j j j j j j j j j h h 9 9 = 2 &.&.&.&.",
"&.&.&.&.&.&.O O j j j j j j j j     P P L L P P L L L I ] [ o o     9 9 9 9 h h h h j j j j j j j j j j j j r r . . &.&.&.&.&.&.",
"&.&.&.&.&.&.    j j j j j j j j     L L L L L L L L L U [ '         e e e e j j j j j j j j j j j j j j j j e e     &.&.&.&.&.&.",
"&.&.&.&.&.&.    j j j j j j j j < < ' [ U L L L ' ' ' ' ' '     e e j j j j j j j j j j j j j j j j j j j j e e     &.&.&.&.&.&.",
"&.&.&.&.&.&.    j j j j j j j j < < ' [ U L L L ' ' ' ' ' '     e e j j j j j j j j j j j j j j j j j j j j e e     &.&.&.&.&.&.",
"&.&.&.&.&.&.    j j j j j j j j     ' ' ' ' ' ' ' '         e e j j j j j j j j j j j j j j j j j j j j j j e e     &.&.&.&.&.&.",
"&.&.&.&.&.&.    j j j j j j j j     ' ' ' ' ' ' ' '         e e j j j j j j j j j j j j j j j j j j j j j j e e     &.&.&.&.&.&.",
"&.&.&.&.&.&.    j j j j j j j j       > _ '         e e e e j j j j j j j j j j j j e e e e e e e e e e e e e e     &.&.&.&.&.&.",
"&.&.&.&.&.&.    g g g g g g g g       & ) _         9 9 9 9 g g g g g g g g g g g g 9 9 9 9 9 9 9 9 9 9 9 9 9 9     &.&.&.&.&.&.",
"&.&.&.&.&.&.    O O O O O O O O         & >         . . . . O O O O O O O O O O O O . . . . . . . . . . . . . .     &.&.&.&.&.&.",
"&.&.&.&.&.&.                                                                                                        &.&.&.&.&.&.",
"&.&.&.&.&.&.&.&.&.&.&.&.&.&.&.&.&.&.&.&.&.&.&.&.&.&.&.&.&.&.&.&.&.&.&.&.&.&.&.&.&.&.&.&.&.&.&.&.&.&.&.&.&.&.&.&.&.&.&.&.&.&.&.&.",
"&.&.&.&.&.&.&.&.&.&.&.&.&.&.&.&.&.&.&.&.&.&.&.&.&.&.&.&.&.&.&.&.&.&.&.&.&.&.&.&.&.&.&.&.&.&.&.&.&.&.&.&.&.&.&.&.&.&.&.&.&.&.&.&."
};
