/* XPM */
static char *result[] = {
/* columns rows colors chars-per-pixel */
"64 64 171 2 ",
"   c #291616",
".  c #1E2E0D",
"X  c #1D2F06",
"o  c #1C3004",
"O  c #1F2C13",
"+  c #2B2902",
"@  c #242B0A",
"#  c #282B08",
"$  c #302702",
"%  c #352700",
"&  c #3E380A",
"*  c #202C12",
"=  c #261622",
"-  c #221628",
";  c #331F21",
":  c #55231B",
">  c #542B1E",
",  c #5B2819",
"<  c #48330B",
"1  c #64311B",
"2  c #682F1A",
"3  c #641D26",
"4  c #4C2526",
"5  c #4A2629",
"6  c #46282B",
"7  c #532224",
"8  c #532B20",
"9  c #5B3424",
"0  c #553628",
"q  c #5F3E34",
"w  c #632D2D",
"e  c #623225",
"r  c #613329",
"t  c #6B3A2D",
"y  c #753D2C",
"u  c #783B2A",
"i  c #632E30",
"p  c #6E3B3D",
"a  c #723E30",
"s  c #713A3D",
"d  c #2D4F07",
"f  c #2E4D0B",
"g  c #304C0D",
"h  c #364A0A",
"j  c #2C5004",
"k  c #35590E",
"l  c #2F4C11",
"z  c #314B13",
"x  c #3B4516",
"c  c #365612",
"v  c #41440D",
"b  c #424313",
"n  c #466C1D",
"m  c #486A1F",
"M  c #6D422B",
"N  c #79472B",
"B  c #6E4836",
"V  c #7B4435",
"C  c #734837",
"Z  c #476A20",
"A  c #486A20",
"S  c #7D6B3A",
"D  c #565B4C",
"F  c #595656",
"G  c #6A6665",
"H  c #797474",
"J  c #777575",
"K  c #8C4F2A",
"L  c #874F2D",
"P  c #96552E",
"I  c #8D4F3E",
"U  c #874F33",
"Y  c #865334",
"T  c #88523F",
"R  c #955435",
"E  c #935539",
"W  c #94593C",
"Q  c #AA6B3F",
"!  c #8B4F42",
"~  c #884F49",
"^  c #8A5141",
"/  c #8A5841",
"(  c #945E43",
")  c #9D5A48",
"_  c #9D5947",
"`  c #AB5547",
"'  c #B65047",
"]  c #9C624A",
"[  c #916042",
"{  c #9C6E56",
"}  c #967156",
"|  c #887F47",
" . c #AA6B40",
".. c #A4674F",
"X. c #A6694E",
"o. c #BD7846",
"O. c #BC774C",
"+. c #BB784C",
"@. c #AA6755",
"#. c #A36B54",
"$. c #AB6C56",
"%. c #A96758",
"&. c #A76859",
"*. c #AA6D59",
"=. c #A76658",
"-. c #B96F5A",
";. c #A87156",
":. c #B67A51",
">. c #B97851",
",. c #867069",
"<. c #A36962",
"1. c #BA7961",
"2. c #B67B60",
"3. c #C37563",
"4. c #C17A67",
"5. c #C37B6B",
"6. c #CC796E",
"7. c #69913C",
"8. c #798941",
"9. c #878047",
"0. c #B58048",
"q. c #BD926F",
"w. c #B48C7C",
"e. c #CF9649",
"r. c #D1954C",
"t. c #D58F5B",
"y. c #D78F56",
"u. c #D59154",
"i. c #D59059",
"p. c #CC8A6F",
"a. c #C3876E",
"s. c #C68D72",
"d. c #CB8A71",
"f. c #C28D7D",
"g. c #D28772",
"h. c #D08871",
"j. c #EFB76A",
"k. c #F0B860",
"l. c #F3CE64",
"z. c #F2CD6A",
"x. c #F8CA6C",
"c. c #EFCE71",
"v. c #F7C77E",
"b. c #FFC07F",
"n. c #F4C87D",
"m. c #BD8F87",
"M. c #BA9281",
"N. c #ACA8A5",
"B. c #C28C80",
"V. c #DB9F87",
"C. c #DBA087",
"Z. c #C2BEBD",
"A. c #EEBEA5",
"S. c #F1BFA3",
"D. c #FDB9A2",
"F. c #FFC180",
"G. c #FFE495",
"H. c #FCE49C",
"J. c #EEC0A4",
"K. c #FDCDAE",
"L. c #F1C2A3",
"P. c #F3D2AD",
"I. c #FAD0AE",
"U. c #FFC4B1",
"Y. c #FDCEB1",
"T. c #F7D1B2",
"R. c #FAE4A2",
"E. c #FFEBBE",
"W. c #FEEBC7",
"Q. c #F8F6F5",
"!. c None",
/* pixels */
"!.!.!.!.!.!.!.!.!.!.!.!.!.!.!.!.!.!.!.!.!.!.!.!.!.!.!.!.!.!.!.!.!.!.!.!.!.!.!.!.!.!.!.!.!.!.!.!.!.!.!.!.!.!.!.!.!.!.!.!.!.!.!.!.",
"!.!.!.!.!.!.!.!.!.!.!.!.!.!.!.!.!.!.!.!.!.!.!.!.!.!.!.!.!.!.!.!.!.!.!.!.!.!.!.!.!.!.!.!.!.!.!.!.!.!.!.!.!.!.!.!.!.!.!.!.!.!.!.!.",
"!.!.!.!.!.!.!.!.!.!.!.!.!.!.!.!.!.!.!.!.!.!.!.!.!.!.+.o.u.u.u.u.u.!.!.!.!.!.!.!.!.!.!.!.!.!.!.!.!.!.!.!.!.!.!.!.!.!.!.!.!.!.!.!.",
"!.!.!.!.!.!.!.!.!.!.!.!.!.!.!.!.!.!.!.!.!.!.!.W R P e.l.l.l.l.l.l.u.u.u.u.u.r.u.u.u.u.!.!.!.!.!.!.!.!.!.!.!.!.!.!.!.!.!.!.!.!.!.",
"!.!.!.!.!.!.!.!.!.!.!.!.!.!.!.!.!.!.!.!.!.!.P y.u.e.l.l.l.l.l.l.l.l.l.l.l.l.l.l.l.l.l.u.!.!.!.!.!.!.!.!.!.!.!.!.!.!.!.!.!.!.!.!.",
"!.!.!.!.!.!.!.!.!.!.!.!.!.!.!.!.!.!.!.!./ R o.u.r.l.l.l.l.l.l.l.l.l.l.l.l.l.l.l.l.l.l.l.u.!.!.!.!.!.!.!.!.!.!.!.!.!.!.!.!.!.!.!.",
"!.!.!.!.!.!.!.!.!.!.!.!.!.!.!.!.!.!.!./ +.o.u.r.l.l.l.l.l.l.l.l.l.l.l.l.l.l.z.l.l.l.l.l.l.u.!.!.!.!.!.!.!.!.!.!.!.!.!.!.!.!.!.!.",
"!.!.!.!.!.!.!.!.!.!.!.!.!.!.!.!.!.!./ +.i.i.e.z.l.l.l.l.l.l.l.l.l.l.l.l.l.l.u.l.l.l.l.l.l.u.!.!.!.!.!.!.!.!.!.!.!.!.!.!.!.!.!.!.",
"!.!.!.!.!.!.!.!.!.!.!.!.!.!.!.!.!./ >.i.i.r.l.l.l.z.l.l.z.l.z.c.R.l.l.l.z.l.u.l.l.z.l.l.l.l.u.!.!.!.!.!.!.!.!.!.!.!.!.!.!.!.!.!.",
"!.!.!.!.!.!.!.!.!.!.!.!.!.!.!.!./ +.+.i.i.r.l.l.c.G.l.c.G.z.R.R.H.l.l.z.R.l.l.u.l.R.z.l.H.z.u.!.!.!.!.!.!.!.!.!.!.!.!.!.!.!.!.!.",
"!.!.!.!.!.!.!.!.!.!.!.!.!.!.!.C +.O.+.o.i.u.l.z.H.G.c.G.l.z.H.G.z.l.l.H.H.l.x.u.l.H.H.l.z.H.l.y.!.!.!.!.!.!.!.!.!.!.!.!.!.!.!.!.",
"!.!.!.!.!.!.!.!.!.!.!.!.!.!.!.B >.O.i.i.y.r.l.l.z.z.l.z.z.H.z.z.l.l.H.z.z.l.r.u.l.z.z.l.i.l.l.y.!.!.!.!.!.!.!.!.!.!.!.!.!.!.!.!.",
"!.!.!.!.!.!.!.!.!.!.!.!.!.!.B W +.O.i.o.u.u.z.l.l.l.l.l.l.z.l.x.r.z.l.l.l.l.y.W l.l.l.r.y.z.l.u.!.!.!.!.!.!.!.!.!.!.!.!.!.!.!.!.",
"!.!.!.!.!.!.!.p p p !.!.!.!.B W >.+.+.i.u.u.e.l.l.l.l.l.l.l.z.u.u.l.l.l.l.u.u.E l.l.u.y.y.u.l.x.:.!.!.!.!.!.!.!.!.!.!.!.!.!.!.!.",
"!.!.!.!.!.!.5 s 7 7 !.!.!.!.B E O.O.+.i.i.u.e.l.l.l.l.l.l.l.x.r.z.l.u.u.u.R R z.l.r.y.u.R o.u.l.O.!.!.!.!.!.!.!.!.!.!.!.!.!.!.!.",
"!.!.!.!.!.!.7 s !.!.!.!.!.0 N E R +.+.+.i.u.u.e.l.l.l.l.l.x.u.i.u.u.u.R E z.z.u.1 1 y.R R R +.r.O.!.!.!.!.!.!.!.!.!.!.!.!.!.!.!.",
"!.!.!.!.!.!.7 s !.!.!.!.!.0 N W E E +.O.i.u.o.u.r.l.x.u.u.u.i.1 1 1 1 i.i.y.w.= 1 1 - d.N R R +.O.!.!.!.!.!.!.!.!.!.!.!.!.!.!.!.",
"!.!.!.!.!.!.7 s p !.!.!.!.0 N N R E R R R R O.u.u.u.u.t.R f.1 B.= = = = d.f.f.  = = = d.N N R R !.!.!.!.!.!.!.!.!.!.!.!.!.!.!.!.",
"!.!.!.!.!.!.!.7 p p p !.!.0 N N N d.d.p.d.p.K O.O.R R W f.= B.  W.W.- - d.f.  W.W.- - d.N N N R !.!.!.!.!.!.!.!.!.!.!.!.!.!.!.!.",
"!.!.!.!.!.!.!.!.7 7 7 7 7 r N N $.d.K.K.s.d.p.L R 1.1.f.f.  s.M.E.E.- m.Y.d.m.E.W.- B.K.N N N !.!.!.!.!.!.!.!.!.!.!.!.!.!.!.!.!.",
"!.!.!.!.!.!.!.!.!.7 !.5 7 e N N $.d.] ] K.K.d.Y ;.1.d.f.  f.K.p.q.E.3 Y.K.K.d.q.E.3 K.K.N N !.!.!.!.!.!.!.!.!.!.!.!.!.!.!.!.!.!.",
"!.!.!.!.!.!.!.!.!.7 !.!.!.!.9 N ;.p.1.] Y.K.s.-.-.d.d.s.f.f.K.K.K.P.U.Y.K.K.K.K.P.K.Y.2 N !.!.!.!.!.!.!.!.!.!.!.!.!.!.!.!.!.!.!.",
"!.!.!.!.!.!.!.!.!.!.6 !.!.!.9 N *.d.h.#.s.s.d.1.d.h.p.K.d.d.K.K.K.P.U.K.I.I.K.K.P.U.d.1 !.!.!.!.!.!.!.!.!.!.!.!.!.!.!.!.!.!.!.!.",
"!.!.!.!.!.!.!.!.!.!.7 !.!.!.9 1 *.d.d.d.p.d.p.d.p.p.p.K.K.U.p.K.K.P.U.-.I.I.K.-.U.Y.K.*.!.!.!.!.!.!.!.!.!.!.!.!.!.!.!.!.!.!.!.!.",
"!.!.!.!.!.!.!.!.!.!.!.6 !.!.!.9 1 $.d.h.h.d.p.d.h.3.I.I.I.K.K.K.P.U.I.' ` ` ` D.L.K.I.S.w.!.!.!.!.!.!.!.!.!.!.!.!.!.!.!.!.!.!.!.",
"!.!.!.!.!.!.!.!.!.!.!.5 !.!.!.!.9 1 *.$.$.;.h.d.h.3.I.I.I.I.K.I.I.Y :.b.b.b.b.n.C.S.J.S.a.!.!.!.!.!.!.!.!.!.!.!.!.!.!.!.!.!.!.!.",
"!.!.!.!.!.!.!.!.!.!.!.!.5 !.!.!.!.9 2 2 2 2 $.h.g.3.I.I.I.I.I.I.Y >.+.l.l.l.l.l.v.V.L.C.$.!.!.!.!.!.!.!.!.!.!.!.!.!.!.!.!.!.!.!.",
"!.!.!.!.!.!.!.!.!.!.!.!.5 !.!.!.!.!.9 1 1 1 2 ;.h.g.1.I.I.I.I.K.U +.+.e.e.r.e.e.l.v.V.5.$.!.!.!.!.!.!.!.!.!.!.!.!.!.!.!.!.!.!.!.",
"!.!.!.!.!.!.!.!.!.!.!.!.!.6 !.!.!.!.!.# $ # + $ % h.d.1.Y.I.Y.Y >.O.i.K K K K u.r.l.5.6.;.!.!.!.!.!.!.!.!.!.!.!.!.!.!.!.!.!.!.!.",
"!.!.!.!.!.!.!.!.!.!.!.!.!.5 !.!.!.!.* z z z z l g < < < [ I.Y.U K K K I.K.K.d.K K 0.6._ !.!.!.!.!.!.!.!.!.!.!.!.!.!.!.!.!.!.!.!.",
"!.!.!.!.!.!.!.!.!.!.!.!.!.!.5 !.!.* z f f f f f f f f g 9.( ( K.Y.I.K.I.;.;.$.d.d...) !.!.!.!.!.!.!.!.!.!.!.!.!.!.!.!.!.!.!.!.!.",
"!.!.!.!.!.!.!.!.!.!.!.!.!.!.5 !.!.. z f f f f d d f f d d 8.9.( [ L.I.I.Y.I.d.p.@.( v !.!.!.!.!.!.!.!.!.!.!.!.!.!.!.!.!.!.!.!.!.",
"!.!.!.!.!.!.!.!.!.!.!.!.!.!.6 !.!.o f f f f f d d f d d d 7.7.S | S.U.K.K.K.d.d.{ S j !.!.!.!.!.!.!.!.!.!.!.!.!.!.!.!.!.!.!.!.!.",
"!.!.!.!.!.!.!.!.!.!.!.!.!.!.!.; . l f d d d f d f f d k k h j 7.7.S S S S S S S [ 7.7.j !.!.!.!.!.!.!.!.!.!.!.!.!.!.!.!.!.!.!.!.",
"!.!.!.!.!.!.!.!.!.!.Z.Z.Z.Z.,.D o l z z z z z g d d k n m n n d d 7.7.7.7.7.7.7.7.f n f !.!.!.!.!.!.!.!.!.!.!.!.!.!.!.!.!.!.!.!.",
"!.!.!.!.!.!.!.!.!.!.J J J J H . l l + $ $ $ $ + g c n n n n n n n d d d d d d d d n n d !.!.!.!.!.!.!.!.!.!.!.!.!.!.!.!.!.!.!.!.",
"!.!.!.!.!.!.!.!.!.!.!.F F F D o f o { $.@.X.@.#.+ c n n m n n n n n n n n n n n n n n n g !.!.!.!.J H J !.!.!.!.!.!.!.!.!.!.!.!.",
"!.!.!.!.!.!.!.!.!.Z.Z.Z.Z.F . l l + #.p.p.p.p.s.#.+ Z n m m m n n n n n n n n n n Z Z Z z !.!.!.H H N.Q.H !.!.!.!.!.!.!.!.!.!.!.",
"!.!.!.!.!.!.!.!.!.!.H H H F . l o { p.p.s.s.I.K.p.{ x b x x Z Z Z Z n n n n n Z A A b v !.!.!.!.,.N.N.N.H !.!.!.!.!.!.!.!.!.!.!.",
"!.!.!.!.!.!.!.!.!.F F F F F . l o { d.s.K.I.I.K.K.s.> > u M b b b b Z Z Z Z Z x b b y S.!.!.!.!.t ,.N.G G !.!.!.!.!.!.!.!.!.!.!.",
"!.!.!.!.!.!.!.!.!.!.!.!.!.!.. f o { d.I.I.I.I.I.U.B.8 , I I u u u u x b b b b u u u E S.Y.!.!.V t t G G !.!.!.!.!.!.!.!.!.!.!.!.",
"!.!.!.!.!.!.!.!.!.!.!.!.!.!.. l o { h.I.I.I.I.Y.<.7 7 ! ! @.E @.@.@.u u u u u @.@.@.@.! A.Y.%.&.V q !.!.!.!.!.!.!.!.!.!.!.!.!.!.",
"!.!.!.!.!.!.!.!.!.!.!.!.!.!.o l o { p.I.I.I.I.Y.7 7 7 ~ ! ~ &.@.@.@.@.@.@. . . . .@.<.~ A.Y.&.V B !.!.!.!.!.!.!.!.!.!.!.!.!.!.!.",
"!.!.!.!.!.!.!.!.!.!.!.!.!.O l d o } p.I.I.Y.T.Y.7 7 7 7 i i w %.@.%.%.%.X.k.j.j.j.%.i i 9 I.V V !.!.!.!.!.!.!.!.!.!.!.!.!.!.!.!.",
"!.!.!.!.!.!.!.!.!.!.!.!.!.. z d o { h.I.I.I.I.T.7 7 7 i 7 i s w i i w w k.k.i i i i s s i S.K.N.!.!.!.!.!.!.!.!.!.!.!.!.!.!.!.!.",
"!.!.!.!.!.!.!.!.!.!.!.!.!.. g f o { d.I.I.I.I.Y.8 7 7 7 i i s s s s s p k.k.w s s s s s i S.I.G N.!.!.!.!.!.!.!.!.!.!.!.!.!.!.!.",
"!.!.!.!.!.!.!.!.!.!.!.!.. z d o o { d.Y.I.I.I.T.8 7 7 7 7 7 7 p p p s p k.k.i p s s s 7 7 S.K.G G N.!.!.!.!.!.!.!.!.!.!.!.!.!.!.",
"!.!.!.!.!.!.!.!.!.!.!.!.X f d o o { d.Y.Y.I.Y.T.> y y u a u a : 7 7 : 7 j.k.: : : 7 7 u S.S.I.!.G N.!.!.!.!.!.!.!.!.!.!.!.!.!.!.",
"!.!.!.!.!.!.!.!.!.!.!.. c f o o o } d.Y.I.I.I.I.Y.I I ) @.@.&.y y y y y y j.j.j.j.a u I A.L.!.!.!.!.!.!.!.!.!.!.!.!.!.!.!.!.!.!.",
"!.!.!.!.!.!.!.!.!.!.o l f o o o o o #.Y.I.I.I.I.Y.^ I $.) @.@.@.@.@.@.@.@.y y u y @.@.%.! J.!.!.!.!.!.!.!.!.!.!.!.!.!.!.!.!.!.!.",
"!.!.!.!.!.!.!.!.!.o f d o o o o o o } Y.Y.Y.I.I.I.^ I ) =.@.@.@.@.X.@.@.@.@.%.@.@.@.@.@.! !.!.!.!.!.!.!.!.!.!.!.!.!.!.!.!.!.!.!.",
"!.!.!.!.!.!.!.!.. f f o o o o o X X o } #.#.s.} # a y ^ ! ! ! ! ! &.&.&.&.%.! ! ! ! ! ^ ^ !.!.!.!.!.!.!.!.!.!.!.!.!.!.!.!.!.!.!.",
"!.!.!.!.!.!.!.!.o f o o o o o o o X o o X o X o @ 7 7 7 7 7 7 7 7 7 7 7 7 7 7 7 7 7 7 7 X !.!.!.!.!.!.!.!.!.!.!.!.!.!.!.!.!.!.!.",
"!.!.!.!.!.!.!.!.o o o o o o o o X o X o o o o o @ 7 7 7 7 i s s s 7 7 7 w i p s s i 7 @ X !.!.!.!.!.!.!.!.!.!.!.!.!.!.!.!.!.!.!.",
"!.!.!.!.!.!.!.!.!.!.X X o o o o X o o X X o o @ 8 r r a y %.@.@.4.! r 8 a =.%.@.4.$.r o !.!.!.!.!.!.!.!.!.!.!.!.!.!.!.!.!.!.!.!.",
"!.!.!.!.!.!.!.!.!.!.!.!.!.. X o o o X o o X o @ > e u ! ! I ! I 4.^ r 8 y y I ! @.! r o !.!.!.!.!.!.!.!.!.!.!.!.!.!.!.!.!.!.!.!.",
"!.!.!.!.!.!.!.!.!.!.!.!.!.!.!.!.!.@ o o X o X @ 8 8 > > > > > > > > 8 > > > > > 8 > @ !.!.!.!.!.!.!.!.!.!.!.!.!.!.!.!.!.!.!.!.!.",
"!.!.!.!.!.!.!.!.!.!.!.!.!.!.!.!.!.!.!.!.!.!.!.!.!.8 M y ^ ! %.@.4.8 > 8 a ^ I &.1.! M !.!.!.!.!.!.!.!.!.!.!.!.!.!.!.!.!.!.!.!.!.",
"!.!.!.!.!.!.!.!.!.!.!.!.!.!.!.!.!.!.!.!.!.!.!.!.8 y y ^ I I ^ I I 8 > M y ! ! y y y y t !.!.!.!.!.!.!.!.!.!.!.!.!.!.!.!.!.!.!.!.",
"!.!.!.!.!.!.!.!.!.!.!.!.!.!.!.!.!.!.!.!.!.!.!.!.8 a y y I @.@.@.4.@.> > y y I ! $.$.4.V M !.!.!.!.!.!.!.!.!.!.!.!.!.!.!.!.!.!.!.",
"!.!.!.!.!.!.!.!.!.!.!.!.!.!.!.!.!.!.!.!.!.!.!.!.8 > > > > > > > > > > 8 > > 8 8 8 8 8 8 8 !.!.!.!.!.!.!.!.!.!.!.!.!.!.!.!.!.!.!.",
"!.!.!.!.!.!.!.!.!.!.!.!.!.!.!.!.!.!.!.!.!.!.!.!.!.!.!.!.!.!.!.!.!.!.!.!.!.!.!.!.!.!.!.!.!.!.!.!.!.!.!.!.!.!.!.!.!.!.!.!.!.!.!.!.",
"!.!.!.!.!.!.!.!.!.!.!.!.!.!.!.!.!.!.!.!.!.!.!.!.!.!.!.!.!.!.!.!.!.!.!.!.!.!.!.!.!.!.!.!.!.!.!.!.!.!.!.!.!.!.!.!.!.!.!.!.!.!.!.!.",
"!.!.!.!.!.!.!.!.!.!.!.!.!.!.!.!.!.!.!.!.!.!.!.!.!.!.!.!.!.!.!.!.!.!.!.!.!.!.!.!.!.!.!.!.!.!.!.!.!.!.!.!.!.!.!.!.!.!.!.!.!.!.!.!."
};
