/* XPM */
static char *result[] = {
/* columns rows colors chars-per-pixel */
"64 64 242 2 ",
"   c #050304",
".  c #0C050C",
"X  c #0C0D0D",
"o  c #070806",
"O  c #130404",
"+  c #1C0405",
"@  c #14060D",
"#  c #1C040C",
"$  c #120C0D",
"%  c #1A0B0D",
"&  c #180A03",
"*  c #0C120D",
"=  c #04160B",
"-  c #12110E",
";  c #1A140B",
":  c #0E0E13",
">  c #0C0B18",
",  c #130C13",
"<  c #1B0B14",
"1  c #160D1A",
"2  c #1B0C1A",
"3  c #190416",
"4  c #0C1211",
"5  c #091416",
"6  c #131313",
"7  c #1A1215",
"8  c #13131B",
"9  c #1B131C",
"0  c #181A19",
"q  c #260409",
"w  c #340609",
"e  c #2B0C14",
"r  c #250B17",
"t  c #380A19",
"y  c #23141B",
"u  c #2A161E",
"i  c #241B1D",
"p  c #271819",
"a  c #391519",
"s  c #31180B",
"d  c #21211F",
"f  c #1B0D21",
"g  c #1D1422",
"h  c #1C1B26",
"j  c #270F22",
"k  c #241522",
"l  c #2A1624",
"z  c #241B24",
"x  c #2B1B24",
"c  c #25152A",
"v  c #2B152B",
"b  c #251B2B",
"n  c #2B1B2B",
"m  c #341524",
"M  c #3C1323",
"N  c #321A25",
"B  c #3B1925",
"V  c #33152B",
"C  c #321D2B",
"Z  c #3C1B2B",
"A  c #3E152C",
"S  c #2C1632",
"D  c #2D1A32",
"F  c #271B35",
"G  c #331532",
"H  c #321B32",
"J  c #371838",
"K  c #340E2D",
"L  c #1C2123",
"P  c #232224",
"I  c #2C2224",
"U  c #24222C",
"Y  c #2C222B",
"T  c #2E2A2B",
"R  c #33232D",
"E  c #3C242D",
"W  c #342C2B",
"Q  c #3C2C2C",
"!  c #362A26",
"~  c #34332C",
"^  c #3B322D",
"/  c #393528",
"(  c #2D2230",
")  c #342431",
"_  c #342C32",
"`  c #3C2C33",
"'  c #3D2D3A",
"]  c #3C2636",
"[  c #353234",
"{  c #3D3333",
"}  c #3B3935",
"|  c #3D3439",
" . c #383B39",
".. c #2E342A",
"X. c #480C18",
"o. c #47141E",
"O. c #571016",
"+. c #46251E",
"@. c #461827",
"#. c #551A28",
"$. c #581A37",
"%. c #4A1329",
"&. c #681B2B",
"*. c #44232C",
"=. c #422D2D",
"-. c #482827",
";. c #572829",
":. c #42322E",
">. c #49322C",
",. c #422E33",
"<. c #422E3A",
"1. c #492835",
"2. c #582934",
"3. c #433334",
"4. c #493333",
"5. c #433A34",
"6. c #493A36",
"7. c #44333A",
"8. c #4A333C",
"9. c #443B3C",
"0. c #4B3A3B",
"q. c #573537",
"w. c #65282E",
"e. c #682B36",
"r. c #73283F",
"t. c #67313A",
"y. c #733133",
"u. c #3D4139",
"i. c #48463C",
"p. c #534A3E",
"a. c #49503D",
"s. c #3D3641",
"d. c #432D43",
"f. c #453441",
"g. c #58354B",
"h. c #6C3345",
"j. c #3E5340",
"k. c #4C4542",
"l. c #444B42",
"z. c #4C4C43",
"x. c #4C4D4A",
"c. c #494545",
"v. c #524643",
"b. c #544C45",
"n. c #594B46",
"m. c #53454C",
"M. c #544D4A",
"N. c #5A4D4B",
"B. c #5B4746",
"V. c #4B5244",
"C. c #4C524A",
"Z. c #47564A",
"A. c #535245",
"S. c #54534B",
"D. c #5A524C",
"F. c #545A4C",
"G. c #585045",
"H. c #584D53",
"J. c #4E5453",
"K. c #545352",
"L. c #5B5452",
"P. c #535A52",
"I. c #5B5A53",
"U. c #5B5859",
"Y. c #64484A",
"T. c #644F55",
"R. c #625D54",
"E. c #625A5A",
"W. c #615455",
"Q. c #5C6554",
"!. c #5D6955",
"~. c #5C655A",
"^. c #5D6B5B",
"/. c #546757",
"(. c #56725F",
"). c #53614F",
"_. c #636356",
"`. c #626A55",
"'. c #64655B",
"]. c #6A655C",
"[. c #646B5C",
"{. c #6A6C5D",
"}. c #696956",
"|. c #64725E",
" X c #69715E",
".X c #657256",
"XX c #725F69",
"oX c #5D6E61",
"OX c #5D6462",
"+X c #5C7463",
"@X c #636663",
"#X c #6B6562",
"$X c #656C62",
"%X c #6B6C62",
"&X c #69686A",
"*X c #726B63",
"=X c #716C6A",
"-X c #657362",
";X c #6A7364",
":X c #6B736A",
">X c #6B7A67",
",X c #737464",
"<X c #6E7973",
"1X c #88575B",
"2X c #975959",
"3X c #934D55",
"4X c #955962",
"5X c #83586A",
"6X c #9B6467",
"7X c #9D6159",
"8X c #7A857A",
"9X c #7B8C7C",
"0X c #758878",
"qX c #7B927E",
"wX c #70907B",
"eX c #6F8A7F",
"rX c #81887C",
"tX c #83917E",
"yX c #7C8D83",
"uX c #768E80",
"iX c #7C9284",
"pX c #7D948A",
"aX c #7D9989",
"sX c #838C83",
"dX c #8B8D86",
"fX c #888B87",
"gX c #859384",
"hX c #84948A",
"jX c #839A8B",
"kX c #8B9689",
"lX c #8A9990",
"zX c #90958F",
"xX c #93A798",
"cX c #A8B7AD",
"vX c #ACBCB3",
"bX c #A9B9B1",
"nX c #B4B9B3",
"mX c #9BAEAB",
"MX c #ACC1B5",
"NX c #B5C4B9",
"BX c #B4C4C0",
"VX c None",
/* pixels */
"VXVXVXVXVXVXVXVXVXVXVXVXVXVXVXVXVXVXVXVXVXVXVXVXVXVXVXVXVXVXVXVXVXVXVXVXVXVXVXVXVXVXVXVXVXVXVXVXVXVXVXVXVXVXVXVXVXVXVXVXVXVXVXVX",
"VXVXVXVXVXVXVXVXVXVXVXVXVXVXVXVXVXVXVXVXVXVXVXVXVXVXVXVXVXVXVXVXVXVXVXVXVXVXx.U.M.W.VXVXVXVXD.D.A.E.VXVXVXVXVXVXVXVXVXVXVXVXVXVX",
"VXVXVXVXVXVXVXVXVXVXVXVXVXVXVXVXVXVXVXVXVXVXVXVXVXVXVXVXVXVXVXVXVXVXVXVXVXx.yXoXF.~ P c.].b.sXkX%Xx._ n VXVXVXVXVXVXVXVXVXVXVXVX",
"VXVXVXVXVXVXVXVXVXVXVXVXVXVXVXVXVXVXVXVXVXVXVXVXVXVXVXVXVXVXVXVX$Xx.c.9.} C.;X-X-X8X:X@XS.I.:X;X!.Q.x.v n VXVXVXVXVXVXVXVXVXVXVX",
"VXVXVXVXVXVXVXVXVXVXVXVXVXVXVXVXVXVXVXVXVXVXVXVXVXVXVXVXVXVXVXVXvXhXvXhX-X[.[.{.tXqXtXF.A.A.^.|.9X[.C.H n U VXVXVXVXVXVXVXVXVXVX",
"VXVXVXVXVXVXVXVXVXVXVXVXVXVXVXVXVXVXVXVXVXVXVXVXVXVXVXVXVXVXVXP.jXjXhXhXgXsX[.`.>X^.[.l.V.V.!.tXtX%XS.g.v l I VXVXVXVXVXVXVXVXVX",
"VXVXVXVXVXVXVXVXVXVXVXVXVXVXVXVXVXVXVXVXVXVXVXVXVXVXVXVXVXVXVXlXNXbX^.'.[.[.oXoX>X|.|.F.`.[.`.!.V.S.k.D n < ` O VXVXVXVXVXVXVXVX",
"VXVXVXVXVXVXVXVXVXVXVXVXVXVXVXVXVXVXVXVXVXVXVXVXVXVXVXVXVXVX} $X[.kXb.N.3.3.A.Z.iXgX!.`.|.[.`.~ { { z R 8.3.Y.* X VXVXVXVXVXVXVX",
"VXVXVXVXVXVXVXVXVXVXVXVXVXVXVXVXVXVXVXVXVXVXVXVXVXVXVXVXVXVX[ -XS.R.i.^ Q n.*X-XiXiX^.`.'.{.i.3.8.<.c { 4.^ S.% 0 VXVXVXVXVXVXVX",
"VXVXVXVXVXVXVXVXVXVXVXVXVXVXVXVXVXVXVXVXVXVXVXVXVXVXVXVXVXVXW x.~ Q M.G.S.S.S.S.hXlXdX].W.Q _ ' v v d.~ 3.M.K.$.o VXVXVXVXVXVXVX",
"VXVXVXVXVXVXVXVXVXVXVXVXVXVXVXVXVXVXVXVXVXVXVXVXVXVXVXVXVXVXx K.3.:.D.S.Z.[.$Xz.C.S.~ ^ { i P P n c d.l ` u a %.o VXVXVXVXVXVXVX",
"VXVXVXVXVXVXVXVXVXVXVXVXVXVXVXVXVXVXVXVXVXVXVXVXVXVXVXVXVXVXz H.Q 3.5.S.;X~.l.D.N.n.5.^ } C.sXsXP x k G D # X.;.  VXVXVXVXVXVXVX",
"VXVXVXVXVXVXVXVXVXVXVXVXVXVXVXVXVXVXVXVXVXVXVXVXVXVXVXVX .P k n l 8.].[.kXA.W Q 7.! i.*X>X>X-X-X[.G.Q H f n q N 6 X X VXVXVXVXVX",
"VXVXVXVXVXVXVXVXVXVXVXVXVXVXVXVXVXVXVXVXVXVXVXVXVXVXVXx.fX@Xm.n ] 3.E.[.i.R.^ ,.9.M.].[. X/.[.[.%XN.0.i , v b f...6 , VXVXVXVXVX",
"VXVXVXVXVXVXVXVXVXVXVXVXVXVXVXVXVXVXVXVXVXVXVXVXVXVXVXNXQ.!.=.4.=.^ }.&XC C 6.3.b.%X#XD.`. X[.!.[.A.{ Q   C 4.p.E q 0 VXVXVXVXVX",
"VXVXVXVXVXVXVXVXVXVXVXVXVXVXVXVXVXVXVXVXVXVXVXVXVXVXD.{.!./.^ v.^ } A.' C u 6.M.S.{.Q.u.z.}..X;X`.S.n.^ b D H.n.O.;.6 VXVXVXVXVX",
"VXVXVXVXVXVXVXVXVXVXVXVXVXVXVXVXVXVXVXVXVXVXVXVXVXVXA.{.;XgXA.A.^ M.A.y ` 4.n.b.:X!.P.C.kX X}.-XC.n.+.;.=.C t @.7Xs O VXVXVXVXVX",
"VXVXVXVXVXVXVXVXVXVXVXVXVXVXVXVXVXVXVXVXVXVXVXVXVXVX^ S.F.-X{.,X^ N.H.3.N.:.b.F.[.$X[.!.z.S.S.x.U T.1X2Xa 2.%.O.q 7 @.@ VXVXVXVX",
"VXVXVXVXVXVXVXVXVXVXVXVXVXVXVXVXVXVXVXVXVXVXVXVXVXVX^ A.S.F.b.5.b.D.N.3.n.Q S.G.S.V.S.D.{ 9.I b n E o.-.v J K A V *.$.e VXVXVXVX",
"VXVXVXVXVXVXVXVXVXVXVXVXVXVXVXVXVXVXVXVXVXVXVXVXVXi._.n.S.S.L.P.S.{.A.4.N.D.^ D.S.b.v.p.,.x u N ,.,.Q ! n F F h & &.6X& 6 VXVXVX",
"VXVXVXVXVXVXVXVXVXVXVXVXVXVXJ.S.S.VXVXVXVXVXVXVX} :X_.A.b.M.).gX$X[.A.{ b.M.^ v.M.M.n.3.<.m 9.4.>.:.{ Q Q C @ , O 2X& = o VXVXVX",
"VXVXVXVXVXVXVXVXVXVXVXVXVXNXcX@Xz.M._ VXVXVXVXdXkX`.`.A.A._.>X!.[.[.F.S.G.6.^ b.i.A.].{ x <.1.4.p.'.:Xa @.3 2 Y n b z 6 6 VXVXVX",
"VXVXVXVXVXVXVXVXVXVXVX{ U.yX>X{.,XD.OXVXVXVXVXdXgX{.[.!.V.[.u.cX^.$X`.#XD.:.:.M.z.z.#X| x R B f.N.d I &.t.m ` ` ] k z z 6 VXVXVX",
"VXVXVXVXVXVXVXVXVXVXVXY c.pX^.!.;X'.OXVXVXVXVXnXiX[.[.`.V.;Xl.kX|.[.{.#X{ { 3.D.%X_.} Y n n Y g 9 r t.4Xt Q 3.x R ` ` 9.` 9 g VX",
"VXVXVXVXVXVXVXVXVXVXVX~ z.yXqX|.'.i.,.VXVXK.L.x.NXiX+X[.*XS.b.rX%X%X! b.{ ` 3.{ 5.5.u <.C f.N P 7 A %.B ` | ,.Z L.v.3.` ,.2 l VX",
"VXVXVXVXVXVXVXVXVXVXVXx.I sX9X!.].Q 1.j VXnXdXz J.hXtX;XR.A.G.'.~ 5.6.v.3.l R ,.^ 3.D.N.7.2.1.. Y l 7.x z { 1.8.G.].M.` l l z VX",
"VXVXVXVXVXVXVXVXVXVXZ.pXL.{ 4.=.3.3.I ] 0 +X!.x l :.{ I.a.`.S.S.gXdX5.3.x l ` ,.D.A.D.M.M.T.e - x =.v.3.=.-.^ z._.k.i 2 H 8.8.VX",
"VXVXVXVXVXVXVXVXVXVXJ.$XA.3.^ =.3.R H V U :X%Xd N.! 5.S.S.>X{.$XgX'.4.3.n d.x l 7.k.p.A.v.< < , $ ! ! ~ 4.{ ` l ( b N 2 1 : 7 VX",
"VXVXVXVXVXVXVXVXVXVXd $XA.3.Q ,.=.k D 7.9 [.[.D.v.=.3.N.C.iX-X+XV.K.7.E n l 7 n 7.H.{ E.) ) 6 : 9 _ 3.N.m.x x C j a #.@.r   * VX",
"VXVXVXVXVXVXVXVXVXVXI @Xp.,.7.1.{ z ( ' I '.;XA.{ =.E M.$XqXqXgXC.m.d.C v x v.L.Y z k <.h P 4 , z 7.XX#X3.7.N n O.&.w.4.$   X VX",
"VXVXVXVXVXVXVXVXVXVXW #X{ 4.] x h  .zX` / a.`./ ^ 3.r M.x._.@X;XU.v v y n 3.b.S.&XM.] k . * * $ x c J x | 1.1.) %.4X1X& - @ $ VX",
"VXVXVXVXVXVXVXVXVX,.M.].'.v.n m.OXhXzX' I. X`.I.k.C.#X{ p =.=.1.V c F ` <.l M.~ k y y $ - * - $ 7.3.<.8.9.E @.2 = * * : 4 1.B VX",
"VXVXVXVXVXVXVXVXVXR D.%XS.D.H x.hXhXfXI K.`. XA.b.V.#X! ! ,.^ E V n 1 , c C 7.n n n , X X : , R { 4.5.Q 5.h.a : $ : * 5 = *.r VX",
"VXVXVXVXVXVXVXVXVX,.N.l.D.A.z :XiX^.dXl H.`.}.A.b.*X*XA.L.A.C.L.l n 1 $ v V N c G D , : h b , 7.N./ G.M.^ Y.q.: X * , $ # h.# VX",
"VXVXVXVXVXVXVXVX} 3.^ M.S.N.k 9XpXP.L.C m.v._.S.L.N.^ I.b.@Xm.R n 8 4 % n n x C 2 1 > $ $ 8 j | b.A.`.#XN.r.2.4 * * : n B t.+ VX",
"VXVXVXVXVXVXVX$XP.3.{ S.N.9.u 8X+XbXfXl Q z.p.I.N.Q 4.D.#XM.c v 1 9 6 R f.l 7.n H Y U , 2 x i ` W U.M.,.p q.+ : % - : L q 4X& VX",
"VXVXVXVXVXVXbXbXhXH.N.^ =.,.N Q.jXyXsX_ ` N.^ 6.,.` 3.3.` N N <.] n z 3.N./ B.v D ' E c n ` y R j S v E 3XO.$ g i < B 4 q q VXVX",
"VXVXVXVXVX$XvXjXlXS.v.3.Q l z hXpXgXS.S.{ D.4.6.Q 3.u x 7.8.3.3.C c b { b.^ x D <.8.*.c ' ] n v H v H @.w.q $ V o . @.$ q + VXVX",
"VXVXVXVXVX~.iXiXZ.M.n.:.3.x L qXqXx.M.z.D.D.^ N.W.C 3 x x ,.=.Q x ] c b.p.D.) n <.2.#.j b l f D 3 l O 1 B X = : O a %.&.;.@ VXVX",
"VXVXVXVXVXoXuXqX(.D.b.^ Q z 9.9XtXK.S.A.G.G.Q N.M.n C n x ` <.l { Q x S.G.H.v x ,.;.w.r b + < n f . * g n 1 . 3 w q.  #.2.VXVXVX",
"VXVXVXVX[ 9X[.`.yXH.z.^ ^ u z.'.&X! A.^.b.S.{.[.L.J z S.%XK.J n A.b.>./ _.` c <.*.o.q 7  .3.Q B J h X V C U , % O + = 2X2XVXVXVX",
"VXVXVXVXI.F.>X~ pXI.{._.p.7.} %XD.n.I.8Xz.[.!.A.N.k M._.#Xz H ` N.v.,.^ ; $ c 8.u e O - { 3.K.A S F $ n n 8 $ , X # & y.1XVXVXVX",
"VXVXVXVX` S.S.V.(.'. X_.6.8.^ ].! 6.z.uX'._.{.^ n.~.A.R.U.v i < n Y U $ - X z x : : $ . x N ,.M D v @ 9 n , 6 X O , @.t ; VXVXVX",
"VXVXVXVX[ u./ %XMX`.V.S.` l I L.}  .+XvX$XA.S.^ n.`.A.%Xi . 6 1 S b , . X X : , X X X X 3 k t h.n V $ 4 h , $ 4 7 5 . VXVXVXVXVX",
"VXVXVXJ.mXhXzX8XNX[.I.v.` l D.:XyXyXaXMX@XM.{ Q ,.L.k.k.* * > k G y * , X X : , $ 4 4 8 1 1 h.3XY v * . $ $ * * x : = O VXVXVXVX",
"VXVXVXK.uXuX^.dXjX%XA.x H D b.gXaXpXaX+X%Xv.{ x E $ y n k b z ) 7.{ Y F $ * 4 X $ 4 , z b b @.q { _ @ q # * * X X @   -.< VXVXVX",
"VXVXVXK.%X[...sX(.~ W C J D p.|.+XaXiX^./ :.{ Y 1 X 1 n v S 3.D.Q 3.H n < 6 : * , 4 : v v n ] :.7.2 *.X.q * * $ , @.w.2XO VXVXVX",
"VXVXVX~._.v.b.D.z.=.=.n c > #X_.@Xl.gX[ 4.q.:.0 : b n x 9.`..XA.M.| 6 n 7 4 X , n 9 $ v ` >.T 4 8 r @.1Xr 4 4 $ o X o * VXVXVXVX",
"VXVXVXVXi.=.N.b.:.Q :.z n D d i.[.F.sX{ 3.4.5.. 6 g b &X-X!.^.'.{ { 9 b 7 * . , l Y . D <.! $ 9 b C A + - 4 * $ ; % 6 0 VXo 6 VX",
"VXVXVXVXW ,.=.N.6.^ N.n H ] d ..#XkX`.^ :.N.9., 3 0 L hXoX).:X{.Q ] c : X 4 , , R 9.6 b <.u : l b S v X 4 4 * X e.e q.@ VX- 6 VX",
"VXVX~.nXj.nXS.C.M.G.N.( c =XlXF.cXV.`.n.L.L.U.Y l N.C.Z./.V.x.v.! l 3 o . : , z ,.3.8 n v S U B G S D L 6 X * * p.* = - VX4 VXVX",
"VXVXZ.hXcXsXyXZ.dXM.4.D s.:XiXMXgXI.!.}.v.k.Y R W.N.~ -X[.sXU.i ` E n P I , 1 I Q | c C S S k %.V D b < 7 $ : : w 3X;.X 6 VXVXVX",
"VXVXZ.uXhXyXuXxXkX:.,.H n  XaXpX0X!.[.z.6.u x L.@XN.5. X).qX=Xx ] Y p.m.9 n < i N.<.V @.l F V #.V S ` _ - X , z - 6 < q   VXVXVX",
"VXVXx.sXZ.c.hXhXl.:.` H z Q.eXiX!.[.%XA.^ u { '.[.S.D.{.!.wX].` n E.,XH.l n 2 R b.' K %.V F u y.m n *.0 4 4 7 C 4 @ q @ VXVXVXVX",
"VXVXC.rXM.C.gX%X3.^ Y v n -XlX-X;X`.*XW 0.4.~ |.a.[.,X`.(.wXD.8.n :X`.n.n F , D ,.z J $.V P >.7Xa D Q 4 6 4 X - . . # + VXVXVXVX",
"VXP.uX0XU.A.z.S.A.G.#Xv n rX9X^. X}.Q Q ,.W hXkXQ.$X_.9XjXNX3.N M.$X}.b.n S , F B n U V y , @.4X$ 8 x q , 4 : @ = ; ;.X.r VXVXVX",
"VX^.jX0X<X{./ 5.D.A.&Xv n sXMX-X{./ :.3.5.sXjX-X!.Z.F.gXlX<X,.# M.~.`.M.n v , v v ] a ;.% X e + * X @ X.@ X 6 u #.w.3Xw r VXVXVX",
"k.].P.a.8X'.4.4.b.D._ n n x.K.rX#X6.4.N { yXuX+X$XC.I.oX:XN.s.6 ~.-X!.L.Z *.4 V c B q.1X. 8 = = 0 $ e $.+ : , 3 > $ X @ VXVXVXVX",
"W m.M.^ b.G.^ Q k.M.n S x x.P.K.D.3.8.N [ /.OXOXsXz.S.C.x.1.[ g $XgX{.#Xa t.* N V Z % O $ < $ , r @.h.5XVXVXVXVXVXVXVXVXVXVXVXVX",
"VXVXVXVX7.{ x ,.1.3.D G N A.b.{ ' l n l _ Z.S.S. .` v.M.3.1.$ { z.} 3.3.#.2X- r b n z 5 5 * * 4 e e VXVXVXVXVXVXVXVXVXVXVXVXVXVX",
"VXVXVXVXVXVXVX7.<.' v c C H.H.9.| n D n ) N.n.K.Y | K.3.1.3Xy ` ` Q =.,.M q.y @ b z 6 , VXVXVXVXVXVXVXVXVXVXVXVXVXVXVXVXVXVXVXVX",
"VXVXVXVXVXVXVXVXQ x c k VXn I x n n D v 2 v.N.7.R l R n a @.VXVXx N l C 3 VX3   2 1 : 6 VXVXVXVXVXVXVXVXVXVXVXVXVXVXVXVXVXVXVXVX",
"VXVXVXVXVXVXVXVXVXVXVXVXVXVXVXVXVXVXVXVXVXk z c n VXVXVXVXVXVXVXVXVXVXVXVXVXVXVXVXVXVXVXVXVXVXVXVXVXVXVXVXVXVXVXVXVXVXVXVXVXVXVX",
"VXVXVXVXVXVXVXVXVXVXVXVXVXVXVXVXVXVXVXVXVXVXVXVXVXVXVXVXVXVXVXVXVXVXVXVXVXVXVXVXVXVXVXVXVXVXVXVXVXVXVXVXVXVXVXVXVXVXVXVXVXVXVXVX"
};
