/* XPM */
static char *result[] = {
/* columns rows colors chars-per-pixel */
"64 64 150 2 ",
"   c #0E0E0E",
".  c gray8",
"X  c #151515",
"o  c gray9",
"O  c #191919",
"+  c #1B1B1B",
"@  c gray11",
"#  c #1D1D1D",
"$  c #1E1E1E",
"%  c gray12",
"&  c #1E1E20",
"*  c #1F1F21",
"=  c #202020",
"-  c gray13",
";  c #202022",
":  c #212123",
">  c #222222",
",  c #222223",
"<  c #232323",
"1  c #222224",
"2  c #232324",
"3  c #232325",
"4  c gray14",
"5  c #242425",
"6  c #252525",
"7  c #242426",
"8  c #252527",
"9  c gray15",
"0  c #272727",
"q  c gray16",
"w  c #2A2A2A",
"e  c gray17",
"r  c #2A2A2C",
"t  c #2D2D2D",
"y  c #2C2C2E",
"u  c gray18",
"i  c #2F2F2F",
"p  c #2E2E30",
"a  c #2F2F31",
"s  c gray19",
"d  c #313131",
"f  c #303032",
"g  c #313132",
"h  c #313133",
"j  c #323232",
"k  c #323233",
"l  c gray20",
"z  c #323135",
"x  c #323234",
"c  c #333334",
"v  c #333335",
"b  c #323136",
"n  c #333236",
"m  c #333237",
"M  c #343337",
"N  c #343434",
"B  c #343435",
"V  c #353535",
"C  c #343436",
"Z  c #353536",
"A  c #353537",
"S  c gray21",
"D  c #373737",
"F  c #343338",
"G  c #353439",
"H  c #363638",
"J  c #373739",
"K  c #393939",
"L  c #38383A",
"P  c #39393B",
"I  c #3A3A3A",
"U  c #3B3B3D",
"Y  c #3C3C3C",
"T  c #3C3C3E",
"R  c #3D3D3F",
"E  c #3E3E40",
"W  c #3F3F41",
"Q  c #404042",
"!  c #414143",
"~  c #424244",
"^  c #434345",
"/  c #434446",
"(  c #444444",
")  c gray27",
"_  c #444446",
"`  c #444547",
"'  c #454547",
"]  c #464646",
"[  c gray28",
"{  c #464549",
"}  c #454648",
"|  c #464648",
" . c #474748",
".. c #464749",
"X. c #474749",
"o. c #47464A",
"O. c #47474A",
"+. c #47484A",
"@. c #484848",
"#. c #484849",
"$. c #494949",
"%. c #48484A",
"&. c #49494A",
"*. c #48494B",
"=. c #49494B",
"-. c #4A4A4B",
";. c #4B4B4B",
":. c #49484D",
">. c #494A4C",
",. c #4A4A4C",
"<. c #4A4B4D",
"1. c #4B4B4D",
"2. c #4B4C4E",
"3. c #4C4C4C",
"4. c #4C4C4E",
"5. c #4C4D4F",
"6. c #4D4D4F",
"7. c #4E4F51",
"8. c #4F4F51",
"9. c #4F5052",
"0. c #505052",
"q. c #525254",
"w. c #535355",
"e. c #545557",
"r. c #5B5C5E",
"t. c #5C5C5E",
"y. c #5C5D5F",
"u. c #5D5D5F",
"i. c #5D5E60",
"p. c #5E5E60",
"a. c #5E5F61",
"s. c #5F5F61",
"d. c #5D6162",
"f. c #5E6062",
"g. c #5F6062",
"h. c #5E6162",
"j. c #5E6263",
"k. c #5F6263",
"l. c #606062",
"z. c #606163",
"x. c #616163",
"c. c #616264",
"v. c #626264",
"b. c #626365",
"n. c #636365",
"m. c #636466",
"M. c #646567",
"N. c #656567",
"B. c #656668",
"V. c None",
/* pixels */
"V.V.V.V.V.V.V.V.V.V.V.V.V.V.V.V.V.V.< < < > < 9 > < > J V.V.V.V.V.V.V.V.V.V.V.V.V.V.V.V.V.V.V.V.V.V.V.V.V.V.V.V.V.V.V.V.V.V.V.V.",
"V.V.V.V.V.V.V.V.V.V.V.V.V.V.V.V.V.V.< = = % - 4 = = - C V.V.V.V.V.V.V.V.V.V.V.V.V.V.V.V.V.V.V.V.V.V.V.V.V.V.V.V.V.V.V.V.V.V.V.V.",
"V.V.V.V.V.V.V.V.V.V.V.V.V.V.V.V.# q l I [ ] @.;.[ [ [ %.J g V.V.V.V.V.V.V.V.V.V.V.V.V.V.V.V.V.V.V.V.V.V.V.V.V.V.V.V.V.V.V.V.V.V.",
"V.V.V.V.V.V.V.V.V.V.V.V.V.V.V.V.; ; v R X.X.%.1.%.%.%.%.H c V.V.V.V.V.V.V.V.V.V.V.V.V.V.V.V.V.V.V.V.V.V.V.V.V.V.V.V.V.V.V.V.V.V.",
"V.V.V.V.V.V.V.V.V.V.V.V.V.V.X < J C A W ,.=.=.6.,.=.=.=.,.-.< < V.V.V.V.V.V.V.V.V.V.V.V.V.V.V.V.V.V.V.V.V.V.V.V.V.V.V.V.V.V.V.V.",
"V.V.V.V.V.V.V.V.V.V.V.V.V.V.@ - C A C T X.| %.5.*.+.+.%.%.%.3 : V.V.V.V.V.V.V.V.V.V.V.V.V.V.V.V.V.V.V.V.V.V.V.V.V.V.V.V.V.V.V.V.",
"V.V.V.V.V.V.V.V.V.V.V.V.V.V.@ - C v %.%.%.s.l.i.g.g.c.%.%.%.f v V.V.V.V.V.V.V.V.V.V.V.V.V.V.V.V.V.V.V.V.V.V.V.V.V.V.V.V.V.V.V.V.",
"V.V.V.V.V.V.V.V.V.V.V.V.V.V.@ - C v %.%.%.s.l.i.g.g.c.%.%.%.f v V.V.V.V.V.V.V.V.V.V.V.V.V.V.V.V.V.V.V.V.V.V.V.V.V.V.V.V.V.V.V.V.",
"V.V.V.V.V.V.V.V.V.V.V.V.V.V.@ - C v %.%.+.a.g.=.X.g.a.c.<.+.=.,.r h V.V.V.V.V.V.V.V.V.V.V.V.V.V.V.V.V.V.V.V.V.V.V.V.V.V.V.V.V.V.",
"V.V.V.V.V.V.V.V.V.V.V.V.V.V.@ - C v %.%.+.a.g.=.=.g.g.g.<.+.X.%.H a V.V.V.V.V.V.V.V.V.V.V.V.V.V.V.V.V.V.V.V.V.V.V.V.V.V.V.V.V.V.",
"V.V.V.V.V.V.V.V.V.V.V.V.V.V.@ - C v %.%.+.a.g.=.%.%.%.g.g.g.%.%.%.X.F Z V.V.V.V.V.V.V.V.V.V.V.V.V.V.V.V.V.V.V.V.V.V.V.V.V.V.V.V.",
"V.V.V.V.V.V.V.V.V.V.V.V.V.V.@ - C v %.%.+.a.g.=.%.%.%.g.g.g.%.%.%.X.m Z V.V.V.V.V.V.V.V.V.V.V.V.V.V.V.V.V.V.V.V.V.V.V.V.V.V.V.V.",
"V.V.V.V.V.V.V.V.V.V.V.V.V.V.@ > A C ,.,.>.z.z.,.=.,.=.z.z.z.x.l.1.=.G Z V.V.V.V.V.V.V.V.V.V.V.V.V.V.V.V.V.V.V.V.V.V.V.V.V.V.V.V.",
"V.V.V.V.V.V.V.V.V.V.V.V.V.V.+ > C v %.%.%.a.d.*.>.%.X.g.g.g.g.g.X.%.A E V.V.V.V.V.V.V.V.V.V.V.V.V.V.V.V.V.V.V.V.V.V.V.V.V.V.V.V.",
"V.V.V.V.V.V.V.V.V.V.V.V.V.$ j N v v =.=.%.a.j.g.a.%.%.+.r.a.z.g.X.%.=.4.D V.V.V.V.V.V.V.V.V.V.V.V.V.V.V.V.V.V.V.V.V.V.V.V.V.V.V.",
"V.V.V.V.V.V.V.V.V.V.V.V.V.% g c v v %.%.=.s.g.c.i.+.` =.i.k.g.g.2./ %.%.l V.V.V.V.V.V.V.V.V.V.V.V.V.V.V.V.V.V.V.V.V.V.V.V.V.V.V.",
"V.V.V.V.V.V.V.V.V.V.V.V.V.% h v v v %.%.1.%.=.r.y.g.g.=.i.k.g.g.a.g.%.%.l V.V.V.V.V.V.V.V.V.V.V.V.V.V.V.V.V.V.V.V.V.V.V.V.V.V.V.",
"V.V.V.V.V.V.V.V.V.V.V.V.V.% h v v v %.=.X.X.%.a.a.g.c.=.i.k.g.g.g.g.%.%.l V.V.V.V.V.V.V.V.V.V.V.V.V.V.V.V.V.V.V.V.V.V.V.V.V.V.V.",
"V.V.V.V.V.V.V.V.V.V.V.V.V.% h v v v %.! C 4.%.4.1.g.c.*.i.z.g.g.g.g.%.=.Q P v V.V.V.V.V.V.V.V.V.V.V.V.V.V.V.V.V.V.V.V.V.V.V.V.V.",
"V.V.V.V.V.V.V.V.V.V.V.V.V.% h v v v %.T f ' %.4.=.g.g.+.y.a.z.g.g.b.%.0.| v v V.V.V.V.V.V.V.V.V.V.V.V.V.V.V.V.V.V.V.V.V.V.V.V.V.",
"V.V.V.V.V.V.V.V.V.V.V.V.V.% h v v v %.%.%.f v ,.=.g.g.g.<.+.g.g.g.g.g.b.%.%.%.c g V.V.V.V.V.V.V.V.V.V.V.V.V.V.V.V.V.V.V.V.V.V.V.",
"V.V.V.V.V.V.V.V.V.V.V.V.V.% h v v v %.%.%.f v ,.=.g.g.g.<.+.g.g.g.g.g.b.%.%.%.v h V.V.V.V.V.V.V.V.V.V.V.V.V.V.V.V.V.V.V.V.V.V.V.",
"V.V.V.V.V.V.V.V.V.V.V.V.V.- x v v v =.=.,.x v | 4.<.} g.<.+.a.g.g.g.g.b.=.=.=.C h V.V.V.V.V.s l V.V.V.V.V.V.V.V.V.V.V.V.V.V.V.V.",
"V.V.V.V.V.V.V.V.V.V.V.V.V.% x v v v %.X.=.x v =.%.%.X.g.+.` x.n.z.z.g.r.' ' %.C h V.V.V.V.V.v x V.V.V.V.V.V.V.V.V.V.V.V.V.V.V.V.",
"V.V.V.V.V.V.V.V.V.V.V.V.V.% h v v v %.E x x v H C %.%.g.g.g.%.%.z.g.g.z.l.| %.x h V.V.V.V.l %.%.v p V.V.V.V.V.V.V.V.V.V.V.V.V.V.",
"V.V.V.V.V.V.V.V.V.V.V.V.V.% h v v v %.E x x v H C %.%.g.g.g.%.%.z.g.g.z.g.| %.k g V.V.V.V.c %.%.v p V.V.V.V.V.V.V.V.V.V.V.V.V.V.",
"V.V.V.V.V.V.V.V.V.V.V.V.V.% h x ' X.X.E A =.X.h C X.%.+.y.g.X.X.z.g.a.c.c.z.i.- = V.V.% P { X.X.X.' A V.V.V.V.V.V.V.V.V.V.V.V.V.",
"V.V.V.V.V.V.V.V.V.V.V.V.V.# v v =.%.%.E J X.%.h C %.X...i.z.%.X.z.i.g.z.g.g.g.- = V.V.- L o.| X.X.4.x V.V.V.V.V.V.V.V.V.V.V.V.V.",
"V.V.V.V.V.V.V.V.V.V.V.< J :.h v =.%.%.E x x v H C %.X.z.g.g.g.g.X.X.g.z.g.g.g.- = V.V.- L O.g.z.g.c.%.%.l V.V.V.V.V.V.V.V.V.V.V.",
"V.V.V.V.V.V.V.V.V.V.V.> A :.v C | %.%.E h x v H v X.^ g.z.a.g.g.X.X.g.c.g.g.g.> $ V.V.- P O.y.a.a.c.,.X.j V.V.V.V.V.V.V.V.V.V.V.",
"V.V.V.V.V.V.V.V.V.V.V.> A :._ | =.%.%.' X.y v H v A a g.<.>.m.g.X.X.g.c.g.g.g.) @.% 6 - P O...>.>.+.p.w.j V.V.V.V.V.V.V.V.V.V.V.",
"V.V.V.V.V.V.V.V.V.V.V.- A :.,.%.%.%.%.%.%.f v H x v p g.<.+.g.g.....g.z.g.g.g._ X.> - - L o.X.=.%.| g.e.x V.V.V.V.V.V.V.V.V.V.V.",
"V.V.V.V.V.V.V.V.V.V.V.> x m X.%.h h %.%.%.f v ,.X.v p g.<.+.g.g.g.g.g.z.g.g.g._ X.> - - a z h v X.| g.b.u.h g V.V.V.V.V.V.V.V.V.",
"V.V.V.V.V.V.V.V.V.V.V.2 x v %.=.x f =.%.=.h C X.%.C a a.<.>.N.v.z.i.c.g.a.a.a.%.%.< > > f n v C %.X.a.m.l.C B V.V.V.V.V.V.V.V.V.",
"V.V.V.V.V.V.V.V.V.V.V., x v %.=.x v v U =.h C X.X.C a g.z.a.X.X.z.b...9.g.g.g.%.%.< > > f n v C %.X.g.B.l.C B V.V.V.V.V.V.V.V.V.",
"V.V.V.V.V.V.V.V.V.V.V., x v X.%.h v v R %.f v =.X.v p g.g.g.%.%.z.g.+.*.g.g.g.X.X.> - - h M x v X.| g.B.l.v c V.V.V.V.V.V.V.V.V.",
"V.V.V.V.V.V.V.V.V.V.V., h x X.X.1.=.x v v h x P x x v *.i.z.X.X.z.g.X.%.a.a.a.X.X.> - - a z x x X.' a.m.c.>.>.r C V.V.V.V.V.V.V.",
"V.V.V.V.V.V.V.V.V.V.V., x v =.X.%.4.C x x x v H x v h *.i.z.%.%.z.c.=.4.g.g.g._ | < 4 - a z x v X.| g.B.a.*.*.J x V.V.V.V.V.V.V.",
"V.V.V.V.V.V.V.V.V.V.V., x v A v =.%.%.E x x v H x v h =.i.k.+.+.z.g.g.z.g.g.g._ %.#.&.- h M x v X.| g.B.g.g.g.>.+.B 5 V.V.V.V.V.",
"V.V.V.V.V.V.V.V.V.V.V., x v A v =.%.%.E x x v H x v h =.i.k.+.+.z.g.g.z.g.g.g._ %.%.=.- h M x v X.| g.B.g.g.g.>.+.C 7 V.V.V.V.V.",
"V.V.V.V.V.V.V.V.V.V.V., x v A v A h h C x x v H x v h =.i.k.z.c.z.g.g.z.g.g.g.l.v.%.=.- a z x v v a } r.g.g.g.a.c.,.8.d V.V.V.V.",
"V.V.V.V.V.V.V.V.V.V.V.= u l N j l j x C x x v H x v v =.u.l.g.g.g.g.g.z.g.g.g.g.i.%.=.- a z x v v h %.t.g.g.g.g.z.=.X.b V.V.V.V.",
"V.V.V.V.V.V.V.V.V.V.V.= e > < - - - : r x x v H x v v v | =.g.g.g.g.g.z.g.g.g.g.i.%.=.- h M x v v h %.t.g.g.g.g.z.=.X.b V.V.V.V.",
"V.V.V.V.V.V.V.V.V.V.V.= e > < - - - : r x x v H x v v v | =.g.g.g.g.g.z.g.g.g.g.i.%.=.- h M x v v h %.t.g.g.g.g.z.=.X.z V.V.V.V.",
"V.V.V.V.V.V.V.V.V.< 4  .q.=.h A v x =.v 1 v C L v X.%.C | ,.z.z.z.z.z.b.z.z.z.z.a.=.=.> h M x C C A x | ` z.z.z.z.a.g.X.x N V.V.",
"V.V.V.V.V.V.V.V.V.- < #.0.%.f v v v %.P 1 v v J A %.,.v | =.g.g.g.z.g.c.g.g.g.g.i.%.=.- h M x v v v v | >.g.g.g.a.g.z.%.H i V.V.",
"V.V.V.V.V.V.V.4 - v v X.q.=.h v v v %.U 1 v v H x v v v | =.g.g.g.g.g.z.g.g.g.g.i.%.=.- h M x v v v v T f l.l.,.X.g.c.%.%.| J v ",
"V.V.V.V.V.V.V.O < v C =.0.%.x x h f %.H & f A H v v v v X.X.a.g.g.y.g.z.a.g.g.z.a.=.%.- f n v v v v v R v l.l.,.%.z.a.X.1.X.C v ",
"V.V.V.V.V.. - K l v C =.0.%.' =.v C v U ,.; : Z c v v v x x a.g.g.z.*.7.f...*.g.a.=.%.- f n v v v v v R A =.=.l.l.+.*.l.4.X.C v ",
"V.V.V.V.V.. - x v v v X.q.=.,.=.h v v R %.* 3 V j v v v v v s.l.g.g.%.=.h.} %.M.i.%.=.- h M x v v v v T A %.%.c.z.+...g.5.X.v v ",
"V.V.V.V.w t j C v v v =.0.=.,.%.X.| | X.=.%.X.> 4 v v v _ X.,.=.c.g.%.=.h.} %.M.i.%.=.- a z x v v v v T C %.%.c.g.g.i.g.5.X.v v ",
"V.V.V.V.> A v v v A f =.6.%.=.%.%.%.%.X.' ,.%.- < v v v | =.%.%.z.g.%.=.a...*.u.N.%.=.- a z x v v v v T C %.%.c.g.g.g.g.5.X.x x ",
"V.V.- 6 l A v v C %.%.X.1.v X.%.%.%.%.E v =.%.> < v v v | =.%.%.z.g.%.=.g.g.g._ %.%.=.- h M x v v v v T C %.%.c.g.g.g.g.5.%.1 1 ",
"V.V.- 6 l A v v C %.%.X.1.v X.%.%.%.%.E v =.%.> < v v v | =.%.%.z.g.%.=.g.g.g._ %.%.=.- h M x v v v v T C %.%.c.g.g.g.g.5.%.1 1 ",
"# + x C v A v v h C v X.1.v C C ,.%.%.%.%.=.%.| ^ - - v C C ,.%.z.g.%.=.g.g.g._ %.%.=.- i j x v v v v T v C C 1.=.=.| g.5.@.> > ",
"4 - v J A H v v v v h %.4.v A v X.1.1.X.%.%.=.4.| > = v v v %.=.z.z.=.,.b.b.b.=.=.=.=.- i l x v v v v T v v v %.4.=.%.g.5.@.< - ",
"4 = v A C A v v v v v x R C A v v v v R X.X.%.1.| : ; v v v %.%.%.%.%.1.%.%.%.%.%.%.=.- 9 > d l v v v T v v v v v %.X.l.6.@.> > ",
"4 = v A C A v v v v v x R C A v v v v R X.X.%.1.| : ; v v v %.%.%.%.%.1.%.%.%.%.%.%.=.- 9 > d l v v v T v v v v v %.X.l.6.@.> > ",
"V.V.: 8 ; H v v v v v x R v A v v v v v C ,.%.3 3 x v v ' X.| %.C A v J C C v X.| 3 3 - 9 > $ - C v v T v v v v v C J A ~ [ < - ",
"V.V.> 0 4 s N N N C h x R v A v v v v v h 6.,.; 3 v v v X.,.=.=.C x v H x v v ~ _ < < - 9 > = - V V v T v v v x v v h v =.( $ > ",
"V.V.V.V.V.o - - - : * x R v A v v v v v v & ; A x v v v x x v x x v v H v ,.%.V.V.V.V.- 9 > = - - % v T v v v v v v x X.V.V.V.V.",
"V.V.V.V.V.  < > < > 9 d Y l V l l l l l u > > C x v v v v v v v d N l l S 3.$.V.V.V.V.< q < 6 < > - v T x x x v A d N @.V.V.V.V.",
"V.V.V.V.V.V.V.V.V.V.V.> t < 6 < < < < < 9 V.V.C x v v v v v v v V.V.V.V.V.V.V.V.V.V.V.V.V.V.V.V.V.V.V.V.| | | | ' V.V.V.V.V.V.V.",
"V.V.V.V.V.V.V.V.V.V.V.= e > > - - - - - - V.V.C x v v v v v v v V.V.V.V.V.V.V.V.V.V.V.V.V.V.V.V.V.V.V.V.%.%.%.%.,.V.V.V.V.V.V.V."
};
